<!--?xml version="1.0" encoding="UTF-8"?-->

<!-- Creator: CorelDRAW 2021 (64-Bit) -->
<svg xmlns="http://www.w3.org/2000/svg" xml:space="preserve" width="100%" height="100%" version="1.1" style="shape-rendering:geometricPrecision; text-rendering:geometricPrecision; image-rendering:optimizeQuality; fill-rule:evenodd; clip-rule:evenodd" viewBox="0 0 10198.17 6189.2" xmlns:xlink="http://www.w3.org/1999/xlink" xmlns:xodm="http://www.corel.com/coreldraw/odm/2003">
 <defs>
  <style type="text/css">

  /***************************************************
 * Generated by SVG Artista on 1/19/2025, 8:14:13 PM
 * MIT license (https://opensource.org/licenses/MIT)
 * W. https://svgartista.net
 **************************************************/

@-webkit-keyframes animate-svg-fill-1 {
  0% {
    fill: transparent;
  }

  100% {
    fill: rgb(0, 0, 0);
  }
}

@keyframes animate-svg-fill-1 {
  0% {
    fill: transparent;
  }

  100% {
    fill: rgb(0, 0, 0);
  }
}

.svg-elem-1 {
  -webkit-animation: animate-svg-fill-1 0.7s cubic-bezier(0.47, 0, 0.745, 0.715) 0.8s infinite both;
          animation: animate-svg-fill-1 0.7s cubic-bezier(0.47, 0, 0.745, 0.715) 0.8s infinite both;
}

@-webkit-keyframes animate-svg-fill-2 {
  0%{
         fill:transparent;
         filter: blur(85px); 
    }
     50%{
         fill:#ffffff21;
         filter: blur(35px);
    }
     100%{
         fill:transparent;
         filter: blur(0px);
    }
}

@keyframes animate-svg-fill-2 {
  0%{
         fill:transparent;
         filter: blur(85px); 
    }
     50%{
         fill:#ffffff21;
         filter: blur(35px);
    }
     100%{
         fill:transparent;
         filter: blur(0px);
    }
}

.svg-elem-2 {
  -webkit-animation: animate-svg-fill-2 0.7s cubic-bezier(0.47, 0, 0.745, 0.715) 0.9s infinite both;
          animation: animate-svg-fill-2 0.7s cubic-bezier(0.47, 0, 0.745, 0.715) 0.9s infinite both;
}

@-webkit-keyframes animate-svg-fill-3 {
  0%{
         fill:transparent;
         filter: blur(85px); 
    }
     50%{
         fill:#ffffff21;
         filter: blur(35px);
    }
     100%{
         fill:transparent;
         filter: blur(0px);
    }
}

@keyframes animate-svg-fill-3 {
  0%{
         fill:transparent;
         filter: blur(85px); 
    }
     50%{
         fill:#ffffff21;
         filter: blur(35px);
    }
     100%{
         fill:transparent;
         filter: blur(0px);
    }
}

.svg-elem-3 {
  -webkit-animation: animate-svg-fill-3 0.7s cubic-bezier(0.47, 0, 0.745, 0.715) 1s infinite both;
          animation: animate-svg-fill-3 0.7s cubic-bezier(0.47, 0, 0.745, 0.715) 1s infinite both;
}

@-webkit-keyframes animate-svg-fill-4 {
  0%{
         fill:transparent;
         filter: blur(85px); 
    }
     50%{
         fill:#ffffff21;
         filter: blur(35px);
    }
     100%{
         fill:transparent;
         filter: blur(0px);
    }
}

@keyframes animate-svg-fill-4 {
  0%{
         fill:transparent;
         filter: blur(85px); 
    }
     50%{
         fill:#ffffff21;
         filter: blur(35px);
    }
     100%{
         fill:transparent;
         filter: blur(0px);
    }
}

.svg-elem-4 {
  -webkit-animation: animate-svg-fill-4 0.7s cubic-bezier(0.47, 0, 0.745, 0.715) 1.1s infinite both;
          animation: animate-svg-fill-4 0.7s cubic-bezier(0.47, 0, 0.745, 0.715) 1.1s infinite both;
}

@-webkit-keyframes animate-svg-fill-5 {
  0%{
         fill:transparent;
         filter: blur(85px); 
    }
     50%{
         fill:#ffffff21;
         filter: blur(35px);
    }
     100%{
         fill:transparent;
         filter: blur(0px);
    }
}

@keyframes animate-svg-fill-5 {
  0%{
         fill:transparent;
         filter: blur(85px); 
    }
     50%{
         fill:#ffffff21;
         filter: blur(35px);
    }
     100%{
         fill:transparent;
         filter: blur(0px);
    }
}

.svg-elem-5 {
  -webkit-animation: animate-svg-fill-5 0.7s cubic-bezier(0.47, 0, 0.745, 0.715) 1.2000000000000002s infinite both;
          animation: animate-svg-fill-5 0.7s cubic-bezier(0.47, 0, 0.745, 0.715) 1.2000000000000002s infinite both;
}

@-webkit-keyframes animate-svg-fill-6 {
  0%{
         fill:transparent;
         filter: blur(85px); 
    }
     50%{
         fill:#ffffff21;
         filter: blur(35px);
    }
     100%{
         fill:transparent;
         filter: blur(0px);
    }
}

@keyframes animate-svg-fill-6 {
  0%{
         fill:transparent;
         filter: blur(85px); 
    }
     50%{
         fill:#ffffff21;
         filter: blur(35px);
    }
     100%{
         fill:transparent;
         filter: blur(0px);
    }
}

.svg-elem-6 {
  -webkit-animation: animate-svg-fill-6 0.7s cubic-bezier(0.47, 0, 0.745, 0.715) 1.3s infinite both;
          animation: animate-svg-fill-6 0.7s cubic-bezier(0.47, 0, 0.745, 0.715) 1.3s infinite both;
}

@-webkit-keyframes animate-svg-fill-7 {
  0%{
         fill:transparent;
         filter: blur(85px); 
    }
     50%{
         fill:#ffffff21;
         filter: blur(35px);
    }
     100%{
         fill:transparent;
         filter: blur(0px);
    }
}

@keyframes animate-svg-fill-7 {
  0%{
         fill:transparent;
         filter: blur(85px); 
    }
     50%{
         fill:#ffffff21;
         filter: blur(35px);
    }
     100%{
         fill:transparent;
         filter: blur(0px);
    }
}

.svg-elem-7 {
  -webkit-animation: animate-svg-fill-7 0.7s cubic-bezier(0.47, 0, 0.745, 0.715) 1.4000000000000001s infinite both;
          animation: animate-svg-fill-7 0.7s cubic-bezier(0.47, 0, 0.745, 0.715) 1.4000000000000001s infinite both;
}

@-webkit-keyframes animate-svg-fill-8 {
  0%{
         fill:transparent;
         filter: blur(85px); 
    }
     50%{
         fill:#ffffff21;
         filter: blur(35px);
    }
     100%{
         fill:transparent;
         filter: blur(0px);
    }
}

@keyframes animate-svg-fill-8 {
  0%{
         fill:transparent;
         filter: blur(85px); 
    }
     50%{
         fill:#ffffff21;
         filter: blur(35px);
    }
     100%{
         fill:transparent;
         filter: blur(0px);
    }
}

.svg-elem-8 {
  -webkit-animation: animate-svg-fill-8 0.7s cubic-bezier(0.47, 0, 0.745, 0.715) 1.5s infinite both;
          animation: animate-svg-fill-8 0.7s cubic-bezier(0.47, 0, 0.745, 0.715) 1.5s infinite both;
}

@-webkit-keyframes animate-svg-fill-9 {
  0%{
         fill:transparent;
         filter: blur(85px); 
    }
     50%{
         fill:#ffffff21;
         filter: blur(35px);
    }
     100%{
         fill:transparent;
         filter: blur(0px);
    }
}

@keyframes animate-svg-fill-9 {
  0%{
         fill:transparent;
         filter: blur(85px); 
    }
     50%{
         fill:#ffffff21;
         filter: blur(35px);
    }
     100%{
         fill:transparent;
         filter: blur(0px);
    }
}

.svg-elem-9 {
  -webkit-animation: animate-svg-fill-9 0.7s cubic-bezier(0.47, 0, 0.745, 0.715) 1.6s infinite both;
          animation: animate-svg-fill-9 0.7s cubic-bezier(0.47, 0, 0.745, 0.715) 1.6s infinite both;
}

@-webkit-keyframes animate-svg-fill-10 {
  0%{
         fill:transparent;
         filter: blur(85px); 
    }
     50%{
         fill:#ffffff21;
         filter: blur(35px);
    }
     100%{
         fill:transparent;
         filter: blur(0px);
    }
}

@keyframes animate-svg-fill-10 {
  0%{
         fill:transparent;
         filter: blur(85px); 
    }
     50%{
         fill:#ffffff21;
         filter: blur(35px);
    }
     100%{
         fill:transparent;
         filter: blur(0px);
    }
}

.svg-elem-10 {
  -webkit-animation: animate-svg-fill-10 0.7s cubic-bezier(0.47, 0, 0.745, 0.715) 1.7000000000000002s infinite both;
          animation: animate-svg-fill-10 0.7s cubic-bezier(0.47, 0, 0.745, 0.715) 1.7000000000000002s infinite both;
}

@-webkit-keyframes animate-svg-fill-11 {
  0%{
         fill:transparent;
         filter: blur(85px); 
    }
     50%{
         fill:#ffffff21;
         filter: blur(35px);
    }
     100%{
         fill:transparent;
         filter: blur(0px);
    }
}

@keyframes animate-svg-fill-11 {
  0%{
         fill:transparent;
         filter: blur(85px); 
    }
     50%{
         fill:#ffffff21;
         filter: blur(35px);
    }
     100%{
         fill:transparent;
         filter: blur(0px);
    }
}

.svg-elem-11 {
  -webkit-animation: animate-svg-fill-11 0.7s cubic-bezier(0.47, 0, 0.745, 0.715) 1.8s infinite both;
          animation: animate-svg-fill-11 0.7s cubic-bezier(0.47, 0, 0.745, 0.715) 1.8s infinite both;
}

@-webkit-keyframes animate-svg-fill-12 {
  0%{
         fill:transparent;
         filter: blur(85px); 
    }
     50%{
         fill:#ffffff21;
         filter: blur(35px);
    }
     100%{
         fill:transparent;
         filter: blur(0px);
    }
}

@keyframes animate-svg-fill-12 {
  0%{
         fill:transparent;
         filter: blur(85px); 
    }
     50%{
         fill:#ffffff21;
         filter: blur(35px);
    }
     100%{
         fill:transparent;
         filter: blur(0px);
    }
}

.svg-elem-12 {
  -webkit-animation: animate-svg-fill-12 0.7s cubic-bezier(0.47, 0, 0.745, 0.715) 1.9000000000000001s infinite both;
          animation: animate-svg-fill-12 0.7s cubic-bezier(0.47, 0, 0.745, 0.715) 1.9000000000000001s infinite both;
}

@-webkit-keyframes animate-svg-fill-13 {
  0%{
         fill:transparent;
         filter: blur(85px); 
    }
     50%{
         fill:#ffffff21;
         filter: blur(35px);
    }
     100%{
         fill:transparent;
         filter: blur(0px);
    }
}

@keyframes animate-svg-fill-13 {
  0%{
         fill:transparent;
         filter: blur(85px); 
    }
     50%{
         fill:#ffffff21;
         filter: blur(35px);
    }
     100%{
         fill:transparent;
         filter: blur(0px);
    }
}

.svg-elem-13 {
  -webkit-animation: animate-svg-fill-13 0.7s cubic-bezier(0.47, 0, 0.745, 0.715) 2s infinite both;
          animation: animate-svg-fill-13 0.7s cubic-bezier(0.47, 0, 0.745, 0.715) 2s infinite both;
}

@-webkit-keyframes animate-svg-fill-14 {
  0%{
         fill:transparent;
         filter: blur(85px); 
    }
     50%{
         fill:#ffffff21;
         filter: blur(35px);
    }
     100%{
         fill:transparent;
         filter: blur(0px);
    }
}

@keyframes animate-svg-fill-14 {
  0%{
         fill:transparent;
         filter: blur(85px); 
    }
     50%{
         fill:#ffffff21;
         filter: blur(35px);
    }
     100%{
         fill:transparent;
         filter: blur(0px);
    }
}

.svg-elem-14 {
  -webkit-animation: animate-svg-fill-14 0.7s cubic-bezier(0.47, 0, 0.745, 0.715) 2.1s infinite both;
          animation: animate-svg-fill-14 0.7s cubic-bezier(0.47, 0, 0.745, 0.715) 2.1s infinite both;
}

@-webkit-keyframes animate-svg-fill-15 {
  0%{
         fill:transparent;
         filter: blur(85px); 
    }
     50%{
         fill:#ffffff21;
         filter: blur(35px);
    }
     100%{
         fill:transparent;
         filter: blur(0px);
    }
}

@keyframes animate-svg-fill-15 {
  0%{
         fill:transparent;
         filter: blur(85px); 
    }
     50%{
         fill:#ffffff21;
         filter: blur(35px);
    }
     100%{
         fill:transparent;
         filter: blur(0px);
    }
}

.svg-elem-15 {
  -webkit-animation: animate-svg-fill-15 0.7s cubic-bezier(0.47, 0, 0.745, 0.715) 2.2s infinite both;
          animation: animate-svg-fill-15 0.7s cubic-bezier(0.47, 0, 0.745, 0.715) 2.2s infinite both;
}

@-webkit-keyframes animate-svg-fill-16 {
  0%{
         fill:transparent;
         filter: blur(85px); 
    }
     50%{
         fill:#ffffff21;
         filter: blur(35px);
    }
     100%{
         fill:transparent;
         filter: blur(0px);
    }
}

@keyframes animate-svg-fill-16 {
  0%{
         fill:transparent;
         filter: blur(85px); 
    }
     50%{
         fill:#ffffff21;
         filter: blur(35px);
    }
     100%{
         fill:transparent;
         filter: blur(0px);
    }
}

.svg-elem-16 {
  -webkit-animation: animate-svg-fill-16 0.7s cubic-bezier(0.47, 0, 0.745, 0.715) 2.3s infinite both;
          animation: animate-svg-fill-16 0.7s cubic-bezier(0.47, 0, 0.745, 0.715) 2.3s infinite both;
}

@-webkit-keyframes animate-svg-fill-17 {
  0%{
         fill:transparent;
         filter: blur(85px); 
    }
     50%{
         fill:#ffffff21;
         filter: blur(35px);
    }
     100%{
         fill:transparent;
         filter: blur(0px);
    }
}

@keyframes animate-svg-fill-17 {
  0%{
         fill:transparent;
         filter: blur(85px); 
    }
     50%{
         fill:#ffffff21;
         filter: blur(35px);
    }
     100%{
         fill:transparent;
         filter: blur(0px);
    }
}

.svg-elem-17 {
  -webkit-animation: animate-svg-fill-17 0.7s cubic-bezier(0.47, 0, 0.745, 0.715) 2.4000000000000004s infinite both;
          animation: animate-svg-fill-17 0.7s cubic-bezier(0.47, 0, 0.745, 0.715) 2.4000000000000004s infinite both;
}

@-webkit-keyframes animate-svg-fill-18 {
  0%{
         fill:transparent;
         filter: blur(85px); 
    }
     50%{
         fill:#ffffff21;
         filter: blur(35px);
    }
     100%{
         fill:transparent;
         filter: blur(0px);
    }
}

@keyframes animate-svg-fill-18 {
  0%{
         fill:transparent;
         filter: blur(85px); 
    }
     50%{
         fill:#ffffff21;
         filter: blur(35px);
    }
     100%{
         fill:transparent;
         filter: blur(0px);
    }
}

.svg-elem-18 {
  -webkit-animation: animate-svg-fill-18 0.7s cubic-bezier(0.47, 0, 0.745, 0.715) 2.5s infinite both;
          animation: animate-svg-fill-18 0.7s cubic-bezier(0.47, 0, 0.745, 0.715) 2.5s infinite both;
}

@-webkit-keyframes animate-svg-fill-19 {
  0%{
         fill:transparent;
         filter: blur(85px); 
    }
     50%{
         fill:#ffffff21;
         filter: blur(35px);
    }
     100%{
         fill:transparent;
         filter: blur(0px);
    }
}

@keyframes animate-svg-fill-19 {
  0%{
         fill:transparent;
         filter: blur(85px); 
    }
     50%{
         fill:#ffffff21;
         filter: blur(35px);
    }
     100%{
         fill:transparent;
         filter: blur(0px);
    }
}

.svg-elem-19 {
  -webkit-animation: animate-svg-fill-19 0.7s cubic-bezier(0.47, 0, 0.745, 0.715) 2.6s infinite both;
          animation: animate-svg-fill-19 0.7s cubic-bezier(0.47, 0, 0.745, 0.715) 2.6s infinite both;
}

@-webkit-keyframes animate-svg-fill-20 {
  0%{
         fill:transparent;
         filter: blur(85px); 
    }
     50%{
         fill:#ffffff21;
         filter: blur(35px);
    }
     100%{
         fill:transparent;
         filter: blur(0px);
    }
}

@keyframes animate-svg-fill-20 {
  0%{
         fill:transparent;
         filter: blur(85px); 
    }
     50%{
         fill:#ffffff21;
         filter: blur(35px);
    }
     100%{
         fill:transparent;
         filter: blur(0px);
    }
}

.svg-elem-20 {
  -webkit-animation: animate-svg-fill-20 0.7s cubic-bezier(0.47, 0, 0.745, 0.715) 2.7s infinite both;
          animation: animate-svg-fill-20 0.7s cubic-bezier(0.47, 0, 0.745, 0.715) 2.7s infinite both;
}

@-webkit-keyframes animate-svg-fill-21 {
  0%{
         fill:transparent;
         filter: blur(85px); 
    }
     50%{
         fill:#ffffff21;
         filter: blur(35px);
    }
     100%{
         fill:transparent;
         filter: blur(0px);
    }
}

@keyframes animate-svg-fill-21 {
  0%{
         fill:transparent;
         filter: blur(85px); 
    }
     50%{
         fill:#ffffff21;
         filter: blur(35px);
    }
     100%{
         fill:transparent;
         filter: blur(0px);
    }
}

.svg-elem-21 {
  -webkit-animation: animate-svg-fill-21 0.7s cubic-bezier(0.47, 0, 0.745, 0.715) 2.8s infinite both;
          animation: animate-svg-fill-21 0.7s cubic-bezier(0.47, 0, 0.745, 0.715) 2.8s infinite both;
}

@-webkit-keyframes animate-svg-fill-22 {
  0%{
         fill:transparent;
         filter: blur(85px); 
    }
     50%{
         fill:#ffffff21;
         filter: blur(35px);
    }
     100%{
         fill:transparent;
         filter: blur(0px);
    }
}

@keyframes animate-svg-fill-22 {
  0%{
         fill:transparent;
         filter: blur(85px); 
    }
     50%{
         fill:#ffffff21;
         filter: blur(35px);
    }
     100%{
         fill:transparent;
         filter: blur(0px);
    }
}

.svg-elem-22 {
  -webkit-animation: animate-svg-fill-22 0.7s cubic-bezier(0.47, 0, 0.745, 0.715) 2.9000000000000004s infinite both;
          animation: animate-svg-fill-22 0.7s cubic-bezier(0.47, 0, 0.745, 0.715) 2.9000000000000004s infinite both;
}

@-webkit-keyframes animate-svg-fill-23 {
  0%{
         fill:transparent;
         filter: blur(85px); 
    }
     50%{
         fill:#ffffff21;
         filter: blur(35px);
    }
     100%{
         fill:transparent;
         filter: blur(0px);
    }
}

@keyframes animate-svg-fill-23 {
  0%{
         fill:transparent;
         filter: blur(85px); 
    }
     50%{
         fill:#ffffff21;
         filter: blur(35px);
    }
     100%{
         fill:transparent;
         filter: blur(0px);
    }
}

.svg-elem-23 {
  -webkit-animation: animate-svg-fill-23 0.7s cubic-bezier(0.47, 0, 0.745, 0.715) 3s infinite both;
          animation: animate-svg-fill-23 0.7s cubic-bezier(0.47, 0, 0.745, 0.715) 3s infinite both;
}

@-webkit-keyframes animate-svg-fill-24 {
  0%{
         fill:transparent;
         filter: blur(85px); 
    }
     50%{
         fill:#ffffff21;
         filter: blur(35px);
    }
     100%{
         fill:transparent;
         filter: blur(0px);
    }
}

@keyframes animate-svg-fill-24 {
  0%{
         fill:transparent;
         filter: blur(85px); 
    }
     50%{
         fill:#ffffff21;
         filter: blur(35px);
    }
     100%{
         fill:transparent;
         filter: blur(0px);
    }
}

.svg-elem-24 {
  -webkit-animation: animate-svg-fill-24 0.7s cubic-bezier(0.47, 0, 0.745, 0.715) 3.1000000000000005s infinite both;
          animation: animate-svg-fill-24 0.7s cubic-bezier(0.47, 0, 0.745, 0.715) 3.1000000000000005s infinite both;
}

@-webkit-keyframes animate-svg-fill-25 {
  0%{
         fill:transparent;
         filter: blur(85px); 
    }
     50%{
         fill:#ffffff21;
         filter: blur(35px);
    }
     100%{
         fill:transparent;
         filter: blur(0px);
    }
}

@keyframes animate-svg-fill-25 {
  0%{
         fill:transparent;
         filter: blur(85px); 
    }
     50%{
         fill:#ffffff21;
         filter: blur(35px);
    }
     100%{
         fill:transparent;
         filter: blur(0px);
    }
}

.svg-elem-25 {
  -webkit-animation: animate-svg-fill-25 0.7s cubic-bezier(0.47, 0, 0.745, 0.715) 3.2s infinite both;
          animation: animate-svg-fill-25 0.7s cubic-bezier(0.47, 0, 0.745, 0.715) 3.2s infinite both;
}

@-webkit-keyframes animate-svg-fill-26 {
  0%{
         fill:transparent;
         filter: blur(85px); 
    }
     50%{
         fill:#ffffff21;
         filter: blur(35px);
    }
     100%{
         fill:transparent;
         filter: blur(0px);
    }
}

@keyframes animate-svg-fill-26 {
  0%{
         fill:transparent;
         filter: blur(85px); 
    }
     50%{
         fill:#ffffff21;
         filter: blur(35px);
    }
     100%{
         fill:transparent;
         filter: blur(0px);
    }
}

.svg-elem-26 {
  -webkit-animation: animate-svg-fill-26 0.7s cubic-bezier(0.47, 0, 0.745, 0.715) 3.3s infinite both;
          animation: animate-svg-fill-26 0.7s cubic-bezier(0.47, 0, 0.745, 0.715) 3.3s infinite both;
}

@-webkit-keyframes animate-svg-fill-27 {
  0%{
         fill:transparent;
         filter: blur(85px); 
    }
     50%{
         fill:#ffffff21;
         filter: blur(35px);
    }
     100%{
         fill:transparent;
         filter: blur(0px);
    }
}

@keyframes animate-svg-fill-27 {
  0%{
         fill:transparent;
         filter: blur(85px); 
    }
     50%{
         fill:#ffffff21;
         filter: blur(35px);
    }
     100%{
         fill:transparent;
         filter: blur(0px);
    }
}

.svg-elem-27 {
  -webkit-animation: animate-svg-fill-27 0.7s cubic-bezier(0.47, 0, 0.745, 0.715) 3.4000000000000004s infinite both;
          animation: animate-svg-fill-27 0.7s cubic-bezier(0.47, 0, 0.745, 0.715) 3.4000000000000004s infinite both;
}

@-webkit-keyframes animate-svg-fill-28 {
  0%{
         fill:transparent;
         filter: blur(85px); 
    }
     50%{
         fill:#ffffff21;
         filter: blur(35px);
    }
     100%{
         fill:transparent;
         filter: blur(0px);
    }
}

@keyframes animate-svg-fill-28 {
  0%{
         fill:transparent;
         filter: blur(85px); 
    }
     50%{
         fill:#ffffff21;
         filter: blur(35px);
    }
     100%{
         fill:transparent;
         filter: blur(0px);
    }
}

.svg-elem-28 {
  -webkit-animation: animate-svg-fill-28 0.7s cubic-bezier(0.47, 0, 0.745, 0.715) 3.5s infinite both;
          animation: animate-svg-fill-28 0.7s cubic-bezier(0.47, 0, 0.745, 0.715) 3.5s infinite both;
}

@-webkit-keyframes animate-svg-fill-29 {
  0%{
         fill:transparent;
         filter: blur(85px); 
    }
     50%{
         fill:#ffffff21;
         filter: blur(35px);
    }
     100%{
         fill:transparent;
         filter: blur(0px);
    }
}

@keyframes animate-svg-fill-29 {
  0%{
         fill:transparent;
         filter: blur(85px); 
    }
     50%{
         fill:#ffffff21;
         filter: blur(35px);
    }
     100%{
         fill:transparent;
         filter: blur(0px);
    }
}

.svg-elem-29 {
  -webkit-animation: animate-svg-fill-29 0.7s cubic-bezier(0.47, 0, 0.745, 0.715) 3.6000000000000005s infinite both;
          animation: animate-svg-fill-29 0.7s cubic-bezier(0.47, 0, 0.745, 0.715) 3.6000000000000005s infinite both;
}

@-webkit-keyframes animate-svg-fill-30 {
  0%{
         fill:transparent;
         filter: blur(85px); 
    }
     50%{
         fill:#ffffff21;
         filter: blur(35px);
    }
     100%{
         fill:transparent;
         filter: blur(0px);
    }
}

@keyframes animate-svg-fill-30 {
  0%{
         fill:transparent;
         filter: blur(85px); 
    }
     50%{
         fill:#ffffff21;
         filter: blur(35px);
    }
     100%{
         fill:transparent;
         filter: blur(0px);
    }
}

.svg-elem-30 {
  -webkit-animation: animate-svg-fill-30 0.7s cubic-bezier(0.47, 0, 0.745, 0.715) 3.7s infinite both;
          animation: animate-svg-fill-30 0.7s cubic-bezier(0.47, 0, 0.745, 0.715) 3.7s infinite both;
}

.svg-elem-31 {
  -webkit-animation: animate-svg-fill-31 0.7s cubic-bezier(0.47, 0, 0.745, 0.715) 3.8s infinite both;
          animation: animate-svg-fill-31 0.7s cubic-bezier(0.47, 0, 0.745, 0.715) 3.8s infinite both;
}

   
    .fil1 {fill:none}
    .fil0 {fill:white;fill-rule:nonzero}
   
  </style>
   <clipPath id="id0">
    <path d="M-0 0l10198.17 0 0 6189.2 -10198.17 0 0 -6189.2z" class="svg-elem-1"></path>
   </clipPath>
 </defs>
 <g id="Слой_x0020_1">
  <metadata id="CorelCorpID_0Corel-Layer"></metadata>
  <g>
  </g>
  <g style="clip-path:url(#id0)">
   <g>
    <g id="_1531336414048">
     <path class="fil0 svg-elem-2" d="M7207.3 1832.52l0 -87.55 -16.28 0 -27.56 27.69 10.63 11.16 14.57 -14.83 0 63.53 18.64 0zm31.51 1.45c5.77,0 10.63,-4.86 10.63,-10.63 0,-5.78 -4.86,-10.63 -10.63,-10.63 -5.78,0 -10.63,4.85 -10.63,10.63 0,5.78 4.86,10.63 10.63,10.63zm60.79 0.13c24.94,0 36.23,-22.71 36.23,-45.29 0,-22.58 -11.29,-45.15 -36.23,-45.15 -25.07,0 -36.23,22.58 -36.23,45.15 0,22.58 11.16,45.29 36.23,45.29zm0 -16.54c-12.6,0 -17.33,-12.6 -17.33,-28.74 0,-16.15 4.73,-28.62 17.33,-28.62 12.47,0 17.19,12.47 17.19,28.62 0,16.15 -4.73,28.74 -17.19,28.74zm92.02 14.96l0 -87.55 -16.28 0 -27.57 27.69 10.63 11.16 14.57 -14.83 0 63.53 18.64 0zm75.9 -19.82l11.64 -11.64 -20.92 -21.08 20.92 -21.08 -11.64 -11.64 -21.08 21.08 -20.92 -21.08 -11.8 11.64 21.08 21.08 -21.08 21.08 11.8 11.64 20.92 -21.08 21.08 21.08z"></path>
     <path class="fil0 svg-elem-3" d="M4949.42 1307.89l0 -199.14 -37.02 0 -62.7 62.99 24.18 25.38 33.14 -33.74 0 144.5 42.39 0zm178.56 0l0 -41.2 25.67 0 0 -37.32 -25.67 0 0 -120.61 -58.52 0 -79.12 124.5 0 33.43 95.24 0 0 41.2 42.4 0zm-42.4 -78.52l-53.74 0 53.74 -83 0 83zm127.51 81.8c13.14,0 24.18,-11.04 24.18,-24.18 0,-13.14 -11.04,-24.18 -24.18,-24.18 -13.14,0 -24.18,11.05 -24.18,24.18 0,13.14 11.05,24.18 24.18,24.18zm215.88 -3.28l0 -37.32 -81.21 0c51.65,-37.62 79.71,-67.18 79.71,-101.21 0,-39.71 -33.74,-63.59 -76.13,-63.59 -27.77,0 -57.32,10.15 -76.73,32.55l24.18 28.06c13.43,-14.03 30.75,-22.99 53.44,-22.99 16.42,0 32.24,8.66 32.24,25.98 0,24.48 -23.88,45.08 -105.39,105.39l0 33.14 149.88 0zm192.89 0l0 -37.32 -81.21 0c51.65,-37.62 79.72,-67.18 79.72,-101.21 0,-39.71 -33.74,-63.59 -76.13,-63.59 -27.77,0 -57.33,10.15 -76.73,32.55l24.18 28.06c13.43,-14.03 30.75,-22.99 53.44,-22.99 16.42,0 32.24,8.66 32.24,25.98 0,24.48 -23.88,45.08 -105.39,105.39l0 33.14 149.88 0zm168.16 -45.08l26.47 -26.48 -47.59 -47.94 47.59 -47.94 -26.47 -26.48 -47.95 47.95 -47.59 -47.95 -26.83 26.48 47.94 47.94 -47.94 47.94 26.83 26.48 47.59 -47.94 47.95 47.94z"></path>
     <path class="fil0 svg-elem-4" d="M1957.77 1738.5l0 -286.12 -53.19 0 -90.08 90.51 34.75 36.46 47.61 -48.47 0 207.62 60.91 0zm166.9 0l106.38 -243.65 0 -42.47 -214.91 0 0 53.62 144.13 0 -102.52 232.5 66.92 0zm149.31 4.72c18.88,0 34.75,-15.87 34.75,-34.75 0,-18.88 -15.87,-34.75 -34.75,-34.75 -18.88,0 -34.75,15.87 -34.75,34.75 0,18.87 15.87,34.75 34.75,34.75zm187.49 0c84.51,0 132.98,-61.34 132.98,-147.56 0,-81.08 -36.46,-147.99 -123.11,-147.99 -65.2,0 -109.81,42.47 -109.81,98.23 0,60.91 46.33,93.09 97.8,93.09 31.31,0 60.05,-17.59 73.78,-36.89 0,2.14 0,4.29 0,6.43 0,41.18 -24.45,80.64 -71.64,80.64 -25.31,0 -41.61,-7.72 -57.05,-22.31l-27.03 46.76c20.16,18.02 49.33,29.6 84.08,29.6zm15.01 -156.57c-26.6,0 -52.76,-12.87 -52.76,-42.9 0,-19.73 18.02,-42.04 50.61,-42.04 40.33,0 55.77,30.88 58.34,58.34 -13.73,16.73 -34.75,26.6 -56.19,26.6zm282.72 157c60.06,0 114.96,-26.17 114.96,-79.36 0,-34.75 -27.45,-61.34 -61.77,-73.35 31.74,-11.15 57.05,-31.75 57.05,-67.35 0,-53.62 -57.48,-75.5 -110.24,-75.5 -53.19,0 -110.24,21.88 -110.24,75.5 0,35.6 24.88,56.19 56.63,67.35 -34.32,12.01 -61.34,38.6 -61.34,73.35 0,53.62 54.91,79.36 114.96,79.36zm0 -176.73c-17.59,-2.57 -48.47,-12.44 -48.47,-33.89 0,-20.59 20.16,-32.6 48.47,-32.6 27.88,0 48.05,12.01 48.05,32.6 0,21.45 -30.46,31.31 -48.05,33.89zm0 124.4c-30.03,0 -53.19,-13.73 -53.19,-34.75 0,-24.02 35.18,-35.6 53.19,-38.18 17.59,2.57 53.19,14.16 53.19,38.18 0,21.02 -24.02,34.75 -53.19,34.75zm349.71 -17.58l38.04 -38.04 -68.37 -68.88 68.37 -68.88 -38.04 -38.04 -68.88 68.88 -68.37 -68.88 -38.56 38.04 68.88 68.88 -68.88 68.88 38.56 38.04 68.37 -68.89 68.88 68.89z"></path>
     <path class="fil0 svg-elem-5" d="M3093.14 2297.33l0 -199.76 -37.14 0 -62.89 63.19 24.26 25.46 33.24 -33.84 0 144.95 42.53 0zm71.9 3.3c13.18,0 24.26,-11.08 24.26,-24.26 0,-13.18 -11.08,-24.26 -24.26,-24.26 -13.18,0 -24.26,11.08 -24.26,24.26 0,13.17 11.08,24.26 24.26,24.26zm138.69 0.3c56.9,0 82.66,-51.81 82.66,-103.32 0,-51.51 -25.76,-103.03 -82.66,-103.03 -57.2,0 -82.66,51.51 -82.66,103.03 0,51.51 25.46,103.32 82.66,103.32zm0 -37.74c-28.75,0 -39.53,-28.75 -39.53,-65.58 0,-36.84 10.78,-65.29 39.53,-65.29 28.45,0 39.23,28.45 39.23,65.29 0,36.84 -10.78,65.58 -39.23,65.58zm209.96 34.14l0 -199.76 -37.14 0 -62.89 63.19 24.26 25.46 33.24 -33.84 0 144.95 42.53 0zm173.18 -45.22l26.56 -26.56 -47.73 -48.09 47.73 -48.09 -26.56 -26.56 -48.09 48.09 -47.73 -48.09 -26.92 26.56 48.09 48.09 -48.09 48.09 26.92 26.56 47.73 -48.09 48.09 48.09z"></path>
     <path class="fil0 svg-elem-6" d="M5004.3 2337.19l0 -198.71 -36.94 0 -62.57 62.86 24.13 25.32 33.07 -33.67 0 144.19 42.3 0zm129.32 3.58c45.28,0 75.97,-29.49 75.97,-68.22 0,-42.31 -31.88,-64.65 -67.63,-64.65 -21.75,0 -41.71,12.21 -50.95,25.62 -0.3,-1.49 -0.3,-2.68 -0.3,-4.17 0,-31.58 20.56,-56.3 49.75,-56.3 17.58,0 28.9,5.36 39.62,15.49l19.07 -32.47c-14.3,-12.21 -34.56,-20.56 -58.69,-20.56 -58.69,0 -92.65,42.6 -92.65,102.78 0,56.01 25.32,102.48 85.8,102.48zm-2.38 -37.54c-27.71,0 -38.43,-21.15 -40.22,-40.22 9.53,-11.92 23.84,-18.77 38.73,-18.77 19.07,0 36.94,8.94 36.94,29.79 0,14 -12.51,29.2 -35.45,29.2zm139.45 37.24c13.11,0 24.13,-11.02 24.13,-24.13 0,-13.11 -11.03,-24.13 -24.13,-24.13 -13.11,0 -24.13,11.03 -24.13,24.13 0,13.11 11.02,24.13 24.13,24.13zm215.42 -3.28l0 -37.24 -81.03 0c51.54,-37.54 79.55,-67.03 79.55,-101 0,-39.63 -33.67,-63.46 -75.97,-63.46 -27.71,0 -57.2,10.13 -76.56,32.47l24.13 28.01c13.41,-14 30.69,-22.94 53.33,-22.94 16.39,0 32.18,8.64 32.18,25.92 0,24.43 -23.83,44.99 -105.17,105.17l0 33.07 149.55 0zm131.71 0l0 -198.71 -36.94 0 -62.56 62.86 24.13 25.32 33.07 -33.67 0 144.19 42.3 0zm172.27 -44.98l26.42 -26.42 -47.49 -47.84 47.49 -47.84 -26.42 -26.42 -47.84 47.84 -47.48 -47.84 -26.78 26.42 47.84 47.84 -47.84 47.84 26.78 26.42 47.48 -47.84 47.84 47.84z"></path>
     <path class="fil0 svg-elem-7" d="M7018.07 1467.28l0 -256.29 -47.64 0 -80.69 81.08 31.13 32.66 42.65 -43.42 0 185.97 54.56 0zm343.58 4.23c16.91,0 31.13,-14.22 31.13,-31.13 0,-16.91 -14.22,-31.13 -31.13,-31.13 -16.91,0 -31.13,14.22 -31.13,31.13 0,16.91 14.22,31.13 31.13,31.13zm-199.45 0c75.69,0 119.12,-54.95 119.12,-132.18 0,-72.62 -32.66,-132.56 -110.28,-132.56 -58.41,0 -98.37,38.04 -98.37,87.99 0,54.56 41.5,83.38 87.61,83.38 28.05,0 53.79,-15.75 66.09,-33.05 0,1.92 0,3.85 0,5.76 0,36.89 -21.9,72.24 -64.17,72.24 -22.67,0 -37.27,-6.92 -51.1,-19.98l-24.21 41.88c18.06,16.14 44.19,26.52 75.31,26.52zm13.45 -140.25c-23.82,0 -47.26,-11.53 -47.26,-38.43 0,-17.67 16.14,-37.65 45.34,-37.65 36.12,0 49.95,27.67 52.26,52.25 -12.3,14.99 -31.13,23.83 -50.34,23.83zm353.95 140.25c75.69,0 119.11,-54.95 119.11,-132.18 0,-72.62 -32.66,-132.56 -110.28,-132.56 -58.41,0 -98.37,38.04 -98.37,87.99 0,54.56 41.5,83.38 87.61,83.38 28.05,0 53.79,-15.75 66.09,-33.05 0,1.92 0,3.85 0,5.76 0,36.89 -21.9,72.24 -64.17,72.24 -22.67,0 -37.27,-6.92 -51.1,-19.98l-24.21 41.88c18.06,16.14 44.19,26.52 75.31,26.52zm13.45 -140.25c-23.82,0 -47.26,-11.53 -47.26,-38.43 0,-17.67 16.14,-37.65 45.34,-37.65 36.12,0 49.95,27.67 52.26,52.25 -12.29,14.99 -31.12,23.83 -50.34,23.83zm260.55 140.63c58.4,0 97.98,-38.04 97.98,-87.99 0,-54.56 -41.11,-83.38 -87.22,-83.38 -28.05,0 -53.8,15.75 -65.71,33.04 -0.39,-1.92 -0.39,-3.46 -0.39,-5.38 0,-40.73 26.51,-72.62 64.17,-72.62 22.67,0 37.27,6.92 51.11,19.98l24.59 -41.88c-18.45,-15.75 -44.57,-26.51 -75.7,-26.51 -75.69,0 -119.5,54.95 -119.5,132.56 0,72.24 32.66,132.18 110.66,132.18zm-3.08 -48.41c-35.73,0 -49.56,-27.28 -51.87,-51.87 12.3,-15.37 30.74,-24.21 49.95,-24.21 24.59,0 47.64,11.53 47.64,38.42 0,18.06 -16.14,37.66 -45.73,37.66zm309.8 -14.21l34.07 -34.07 -61.24 -61.7 61.24 -61.7 -34.07 -34.07 -61.7 61.7 -61.24 -61.7 -34.53 34.07 61.7 61.7 -61.7 61.7 34.53 34.07 61.24 -61.7 61.7 61.7z"></path>
     <path class="fil0 svg-elem-8" d="M7577.16 2334.12l0 -195.68 -36.38 0 -61.61 61.9 23.77 24.94 32.57 -33.15 0 142 41.66 0zm70.44 3.23c12.91,0 23.76,-10.85 23.76,-23.76 0,-12.91 -10.85,-23.77 -23.76,-23.77 -12.91,0 -23.76,10.85 -23.76,23.77 0,12.91 10.85,23.76 23.76,23.76zm212.14 -3.23l0 -36.67 -79.8 0c50.75,-36.97 78.33,-66.01 78.33,-99.46 0,-39.02 -33.15,-62.49 -74.81,-62.49 -27.28,0 -56.33,9.98 -75.4,31.98l23.77 27.58c13.2,-13.79 30.22,-22.59 52.52,-22.59 16.13,0 31.68,8.51 31.68,25.52 0,24.06 -23.47,44.3 -103.57,103.57l0 32.56 147.28 0zm129.7 0l0 -195.68 -36.38 0 -61.61 61.9 23.76 24.94 32.57 -33.15 0 142 41.66 0zm169.65 -44.3l26.02 -26.01 -46.76 -47.11 46.76 -47.11 -26.02 -26.02 -47.11 47.11 -46.76 -47.11 -26.37 26.02 47.11 47.11 -47.11 47.11 26.37 26.01 46.76 -47.11 47.11 47.11z"></path>
     <path class="fil0 svg-elem-9" d="M7415.09 4008.86l0 -75.5 -14.04 0 -23.77 23.88 9.17 9.62 12.57 -12.79 0 54.78 16.07 0zm44.04 0l28.07 -64.29 0 -11.21 -56.71 0 0 14.15 38.03 0 -27.06 61.35 17.66 0zm50.04 1.25c4.98,0 9.17,-4.19 9.17,-9.17 0,-4.98 -4.19,-9.17 -9.17,-9.17 -4.98,0 -9.17,4.19 -9.17,9.17 0,4.98 4.19,9.17 9.17,9.17zm74.71 -1.25l0 -15.62 9.73 0 0 -14.15 -9.73 0 0 -45.73 -22.19 0 -29.99 47.2 0 12.68 36.11 0 0 15.62 16.07 0zm-16.07 -29.77l-20.38 0 20.38 -31.47 0 31.47zm68.15 31.13c15.85,0 30.33,-6.9 30.33,-20.94 0,-9.17 -7.24,-16.19 -16.3,-19.36 8.38,-2.94 15.06,-8.37 15.06,-17.77 0,-14.15 -15.17,-19.92 -29.09,-19.92 -14.04,0 -29.09,5.77 -29.09,19.92 0,9.4 6.56,14.83 14.94,17.77 -9.06,3.17 -16.19,10.19 -16.19,19.36 0,14.15 14.49,20.94 30.33,20.94zm0 -46.63c-4.64,-0.68 -12.79,-3.28 -12.79,-8.94 0,-5.43 5.32,-8.6 12.79,-8.6 7.36,0 12.68,3.17 12.68,8.6 0,5.66 -8.03,8.27 -12.68,8.94zm0 32.82c-7.92,0 -14.04,-3.62 -14.04,-9.17 0,-6.34 9.28,-9.39 14.04,-10.07 4.64,0.68 14.04,3.74 14.04,10.07 0,5.55 -6.34,9.17 -14.04,9.17zm92.28 -4.64l10.04 -10.04 -18.04 -18.18 18.04 -18.18 -10.04 -10.04 -18.17 18.18 -18.04 -18.18 -10.17 10.04 18.18 18.18 -18.18 18.18 10.17 10.04 18.04 -18.18 18.17 18.18z"></path>
     <path class="fil0 svg-elem-10" d="M5657.38 4329.62l0 -141.87 -26.37 0 -44.67 44.88 17.23 18.08 23.61 -24.04 0 102.95 30.2 0zm88.28 2.55c29.78,0 57,-12.97 57,-39.35 0,-17.23 -13.61,-30.42 -30.63,-36.37 15.74,-5.53 28.29,-15.74 28.29,-33.39 0,-26.59 -28.5,-37.43 -54.66,-37.43 -26.37,0 -54.66,10.85 -54.66,37.43 0,17.65 12.34,27.86 28.07,33.39 -17.01,5.95 -30.42,19.14 -30.42,36.37 0,26.59 27.23,39.35 57,39.35zm0 -87.63c-8.72,-1.28 -24.03,-6.17 -24.03,-16.8 0,-10.21 10,-16.16 24.03,-16.16 13.83,0 23.82,5.95 23.82,16.16 0,10.64 -15.1,15.53 -23.82,16.8zm0 61.68c-14.89,0 -26.37,-6.81 -26.37,-17.23 0,-11.91 17.44,-17.66 26.37,-18.93 8.72,1.28 26.37,7.02 26.37,18.93 0,10.42 -11.91,17.23 -26.37,17.23zm101.47 25.73c9.36,0 17.23,-7.87 17.23,-17.23 0,-9.36 -7.87,-17.23 -17.23,-17.23 -9.36,0 -17.23,7.87 -17.23,17.23 0,9.36 7.87,17.23 17.23,17.23zm92.96 0c41.9,0 65.94,-30.42 65.94,-73.17 0,-40.2 -18.08,-73.38 -61.04,-73.38 -32.33,0 -54.45,21.05 -54.45,48.7 0,30.2 22.97,46.16 48.49,46.16 15.53,0 29.78,-8.72 36.58,-18.29 0,1.06 0,2.13 0,3.19 0,20.42 -12.12,39.99 -35.52,39.99 -12.55,0 -20.63,-3.83 -28.29,-11.06l-13.4 23.18c10,8.93 24.46,14.68 41.69,14.68zm7.45 -77.63c-13.19,0 -26.16,-6.38 -26.16,-21.27 0,-9.78 8.93,-20.84 25.1,-20.84 19.99,0 27.65,15.31 28.92,28.93 -6.8,8.29 -17.23,13.18 -27.86,13.18zm179.1 75.3l0 -29.35 18.29 0 0 -26.59 -18.29 0 0 -85.93 -41.69 0 -56.36 88.69 0 23.82 67.85 0 0 29.35 30.2 0zm-30.2 -55.94l-38.29 0 38.29 -59.13 0 59.13zm162.76 23.82l18.86 -18.86 -33.9 -34.15 33.9 -34.15 -18.86 -18.86 -34.15 34.16 -33.9 -34.16 -19.12 18.86 34.16 34.15 -34.16 34.15 19.12 18.86 33.9 -34.15 34.15 34.15z"></path>
     <path class="fil0 svg-elem-11" d="M7033.65 4899.81l0 -206.08 -38.31 0 -64.88 65.19 25.02 26.26 34.29 -34.91 0 149.54 43.88 0zm115.89 3.4c60.86,0 95.78,-44.18 95.78,-106.28 0,-58.39 -26.26,-106.59 -88.67,-106.59 -46.96,0 -79.09,30.59 -79.09,70.75 0,43.87 33.37,67.04 70.44,67.04 22.55,0 43.26,-12.67 53.14,-26.57 0,1.55 0,3.09 0,4.63 0,29.66 -17.61,58.09 -51.59,58.09 -18.23,0 -29.97,-5.56 -41.09,-16.07l-19.46 33.68c14.52,12.97 35.53,21.32 60.56,21.32zm10.81 -112.77c-19.16,0 -38,-9.27 -38,-30.89 0,-14.21 12.98,-30.28 36.46,-30.28 29.04,0 40.16,22.25 42.02,42.02 -9.89,12.05 -25.02,19.15 -40.47,19.15zm143.07 112.77c13.59,0 25.03,-11.43 25.03,-25.03 0,-13.59 -11.43,-25.02 -25.03,-25.02 -13.59,0 -25.02,11.43 -25.02,25.02 0,13.59 11.43,25.03 25.02,25.03zm116.81 -3.4l76.62 -175.49 0 -30.59 -154.79 0 0 38.62 103.81 0 -73.84 167.46 48.2 0zm190.65 3.71c43.26,0 82.8,-18.85 82.8,-57.16 0,-25.02 -19.78,-44.18 -44.49,-52.83 22.86,-8.03 41.09,-22.86 41.09,-48.5 0,-38.62 -41.4,-54.38 -79.4,-54.38 -38.31,0 -79.4,15.76 -79.4,54.38 0,25.64 17.92,40.47 40.78,48.5 -24.72,8.65 -44.18,27.81 -44.18,52.83 0,38.62 39.54,57.16 82.8,57.16zm0 -127.29c-12.67,-1.86 -34.91,-8.96 -34.91,-24.41 0,-14.83 14.52,-23.48 34.91,-23.48 20.08,0 34.6,8.65 34.6,23.48 0,15.45 -21.94,22.55 -34.6,24.41zm0 89.59c-21.63,0 -38.31,-9.88 -38.31,-25.02 0,-17.3 25.34,-25.64 38.31,-27.5 12.67,1.85 38.31,10.2 38.31,27.5 0,15.14 -17.3,25.02 -38.31,25.02zm251.88 -12.66l27.4 -27.4 -49.24 -49.61 49.24 -49.61 -27.4 -27.4 -49.62 49.61 -49.24 -49.61 -27.77 27.4 49.62 49.61 -49.62 49.61 27.77 27.4 49.24 -49.61 49.62 49.61z"></path>
     <path class="fil0 svg-elem-12" d="M3905.73 4848.36c57.79,0 90.94,-41.95 90.94,-100.92 0,-55.44 -24.93,-101.21 -84.19,-101.21 -44.59,0 -75.1,29.04 -75.1,67.18 0,41.66 31.68,63.66 66.89,63.66 21.41,0 41.07,-12.03 50.46,-25.23 0,1.46 0,2.93 0,4.4 0,28.16 -16.72,55.15 -48.99,55.15 -17.31,0 -28.46,-5.28 -39.01,-15.25l-18.48 31.97c13.79,12.32 33.73,20.24 57.5,20.24zm10.27 -107.08c-18.19,0 -36.08,-8.8 -36.08,-29.34 0,-13.49 12.32,-28.75 34.62,-28.75 27.58,0 38.13,21.12 39.9,39.9 -9.39,11.44 -23.76,18.19 -38.43,18.19zm135.85 107.08c12.91,0 23.76,-10.85 23.76,-23.76 0,-12.91 -10.85,-23.76 -23.76,-23.76 -12.91,0 -23.76,10.85 -23.76,23.76 0,12.91 10.85,23.76 23.76,23.76zm128.22 0c57.79,0 90.94,-41.95 90.94,-100.92 0,-55.44 -24.93,-101.21 -84.19,-101.21 -44.59,0 -75.1,29.04 -75.1,67.18 0,41.66 31.68,63.66 66.89,63.66 21.41,0 41.07,-12.03 50.46,-25.23 0,1.46 0,2.93 0,4.4 0,28.16 -16.72,55.15 -48.99,55.15 -17.31,0 -28.46,-5.28 -39.01,-15.25l-18.48 31.97c13.79,12.32 33.73,20.24 57.5,20.24zm10.27 -107.08c-18.19,0 -36.08,-8.8 -36.08,-29.34 0,-13.49 12.32,-28.75 34.62,-28.75 27.58,0 38.13,21.12 39.9,39.9 -9.39,11.44 -23.76,18.19 -38.43,18.19zm194.23 107.37c47.23,0 78.33,-26.11 78.33,-67.77 0,-39.6 -29.63,-63.37 -62.78,-63.37 -17.9,0 -33.74,7.04 -43.12,16.43l0 -47.82 92.7 0 0 -36.67 -134.36 0 0 112.35 29.04 7.63c11.73,-11.15 24.93,-15.84 41.07,-15.84 22.29,0 35.2,11.73 35.2,29.04 0,15.84 -13.2,29.04 -36.37,29.04 -20.54,0 -38.73,-7.63 -51.93,-21.41l-23.17 29.04c16.72,18.19 41.36,29.34 75.39,29.34zm238.86 -47.82l26.01 -26.01 -46.76 -47.11 46.76 -47.11 -26.01 -26.01 -47.11 47.11 -46.76 -47.11 -26.36 26.01 47.11 47.11 -47.11 47.11 26.36 26.01 46.76 -47.11 47.11 47.11z"></path>
     <path class="fil0 svg-elem-13" d="M2114.23 4810.05l0 -237.59 -44.17 0 -74.8 75.16 28.85 30.28 39.54 -40.25 0 172.4 50.58 0zm140.73 4.28c56.99,0 93.68,-28.85 93.68,-69.82 0,-35.62 -31.35,-54.5 -55.57,-56.99 26.36,-4.63 52.01,-24.22 52.01,-54.14 0,-39.54 -34.2,-64.47 -89.76,-64.47 -41.68,0 -71.6,16.03 -90.83,37.76l25.29 31.7c16.74,-16.03 37.4,-24.58 60.2,-24.58 24.93,0 44.17,9.26 44.17,28.14 0,17.45 -17.45,25.29 -43.81,25.29 -8.9,0 -25.29,0 -29.56,-0.36l0 45.59c3.56,-0.36 19.59,-0.71 29.56,-0.71 33.13,0 47.73,8.55 47.73,27.43 0,17.81 -16.03,30.28 -44.88,30.28 -23.15,0 -49.16,-9.97 -65.54,-27.07l-26.36 33.84c17.45,21.37 49.87,38.12 93.68,38.12zm170.29 -0.36c15.67,0 28.85,-13.18 28.85,-28.85 0,-15.67 -13.18,-28.85 -28.85,-28.85 -15.67,0 -28.85,13.18 -28.85,28.85 0,15.67 13.18,28.85 28.85,28.85zm171.01 0.36c57.35,0 95.11,-31.7 95.11,-82.28 0,-48.09 -35.98,-76.94 -76.23,-76.94 -21.73,0 -40.96,8.55 -52.36,19.95l0 -58.06 112.56 0 0 -44.52 -163.14 0 0 136.43 35.27 9.26c14.25,-13.54 30.28,-19.24 49.87,-19.24 27.07,0 42.74,14.25 42.74,35.27 0,19.24 -16.03,35.26 -44.17,35.26 -24.93,0 -47.02,-9.26 -63.05,-26l-28.14 35.26c20.3,22.09 50.22,35.62 91.54,35.62zm297.11 -4.28l0 -49.16 30.63 0 0 -44.52 -30.63 0 0 -143.91 -69.82 0 -94.39 148.54 0 39.9 113.63 0 0 49.16 50.58 0zm-50.58 -93.68l-64.12 0 64.12 -99.03 0 99.03zm272.59 39.9l31.59 -31.59 -56.77 -57.2 56.77 -57.2 -31.59 -31.59 -57.2 57.2 -56.77 -57.2 -32.02 31.59 57.2 57.2 -57.2 57.2 32.02 31.59 56.77 -57.2 57.2 57.2z"></path>
     <path class="fil0 svg-elem-14" d="M783.59 1139.84l0 -100.07 -18.6 0 -31.51 31.66 12.15 12.75 16.65 -16.95 0 72.61 21.3 0zm36.02 1.65c6.6,0 12.16,-5.55 12.16,-12.15 0,-6.6 -5.55,-12.15 -12.16,-12.15 -6.6,0 -12.15,5.55 -12.15,12.15 0,6.6 5.55,12.15 12.15,12.15zm108.48 -1.65l0 -18.75 -40.81 0c25.96,-18.9 40.06,-33.76 40.06,-50.86 0,-19.96 -16.96,-31.95 -38.26,-31.95 -13.95,0 -28.81,5.1 -38.56,16.35l12.16 14.1c6.75,-7.05 15.45,-11.55 26.86,-11.55 8.25,0 16.2,4.35 16.2,13.05 0,12.3 -12,22.65 -52.96,52.96l0 16.65 75.32 0zm66.33 0l0 -100.07 -18.6 0 -31.51 31.66 12.15 12.75 16.65 -16.95 0 72.61 21.3 0zm86.75 -22.65l13.31 -13.3 -23.91 -24.09 23.91 -24.09 -13.31 -13.3 -24.09 24.09 -23.91 -24.09 -13.49 13.3 24.09 24.09 -24.09 24.09 13.49 13.3 23.91 -24.09 24.09 24.09z"></path>
     <path class="fil0 svg-elem-15" d="M1538.21 3050.2l0 -41.01 25.56 0 0 -37.15 -25.56 0 0 -120.07 -58.25 0 -78.76 123.94 0 33.29 94.81 0 0 41.01 42.2 0zm-42.2 -78.17l-53.5 0 53.5 -82.62 0 82.62zm126.93 81.44c13.08,0 24.07,-11 24.07,-24.08 0,-13.07 -11,-24.07 -24.07,-24.07 -13.08,0 -24.07,11 -24.07,24.07 0,13.08 11,24.08 24.07,24.08zm141.79 0.3c41.61,0 79.65,-18.13 79.65,-54.98 0,-24.07 -19.02,-42.5 -42.8,-50.82 22,-7.73 39.53,-21.99 39.53,-46.66 0,-37.15 -39.83,-52.31 -76.39,-52.31 -36.85,0 -76.38,15.16 -76.38,52.31 0,24.67 17.24,38.93 39.23,46.66 -23.78,8.32 -42.5,26.75 -42.5,50.82 0,37.15 38.04,54.98 79.65,54.98zm0 -122.45c-12.18,-1.79 -33.59,-8.62 -33.59,-23.48 0,-14.27 13.97,-22.59 33.59,-22.59 19.32,0 33.29,8.32 33.29,22.59 0,14.86 -21.1,21.7 -33.29,23.48zm0 86.19c-20.8,0 -36.85,-9.51 -36.85,-24.07 0,-16.64 24.37,-24.67 36.85,-26.45 12.19,1.78 36.85,9.81 36.85,26.45 0,14.56 -16.64,24.07 -36.85,24.07zm181.92 35.96c58.55,0 92.14,-42.5 92.14,-102.24 0,-56.17 -25.26,-102.54 -85.3,-102.54 -45.18,0 -76.08,29.42 -76.08,68.06 0,42.2 32.1,64.5 67.76,64.5 21.7,0 41.61,-12.19 51.12,-25.56 0,1.48 0,2.97 0,4.46 0,28.53 -16.94,55.87 -49.64,55.87 -17.53,0 -28.83,-5.35 -39.53,-15.45l-18.72 32.4c13.97,12.48 34.18,20.51 58.25,20.51zm10.41 -108.48c-18.43,0 -36.56,-8.91 -36.56,-29.72 0,-13.67 12.48,-29.13 35.07,-29.13 27.94,0 38.64,21.4 40.42,40.42 -9.51,11.59 -24.07,18.43 -38.93,18.43zm244.38 60.34l26.36 -26.36 -47.37 -47.72 47.37 -47.73 -26.36 -26.36 -47.73 47.73 -47.37 -47.73 -26.71 26.36 47.73 47.73 -47.73 47.72 26.71 26.36 47.37 -47.73 47.73 47.73z"></path>
     <path class="fil0 svg-elem-16" d="M5676.89 5104.8l0 -22.36 13.94 0 0 -20.25 -13.94 0 0 -65.47 -31.76 0 -42.95 67.57 0 18.15 51.7 0 0 22.36 23.01 0zm-23.01 -42.62l-29.17 0 29.17 -45.05 0 45.05zm69.21 44.4c7.13,0 13.13,-6 13.13,-13.13 0,-7.13 -6,-13.13 -13.13,-13.13 -7.13,0 -13.13,5.99 -13.13,13.13 0,7.13 6,13.13 13.13,13.13zm61.27 -1.78l40.19 -92.05 0 -16.04 -81.19 0 0 20.26 54.45 0 -38.73 87.83 25.28 0zm99.99 1.94c22.69,0 43.43,-9.88 43.43,-29.98 0,-13.13 -10.37,-23.17 -23.34,-27.71 11.99,-4.21 21.55,-11.99 21.55,-25.44 0,-20.26 -21.72,-28.52 -41.65,-28.52 -20.09,0 -41.65,8.27 -41.65,28.52 0,13.45 9.4,21.23 21.39,25.44 -12.97,4.54 -23.17,14.58 -23.17,27.71 0,20.25 20.74,29.98 43.43,29.98zm0 -66.76c-6.64,-0.97 -18.31,-4.7 -18.31,-12.8 0,-7.78 7.62,-12.32 18.31,-12.32 10.54,0 18.15,4.54 18.15,12.32 0,8.1 -11.5,11.83 -18.15,12.8zm0 46.99c-11.34,0 -20.09,-5.18 -20.09,-13.13 0,-9.08 13.29,-13.45 20.09,-14.42 6.65,0.97 20.1,5.35 20.1,14.42 0,7.94 -9.08,13.13 -20.1,13.13zm132.11 -6.64l14.37 -14.37 -25.83 -26.02 25.83 -26.02 -14.37 -14.37 -26.02 26.02 -25.83 -26.02 -14.56 14.37 26.02 26.02 -26.02 26.02 14.56 14.37 25.83 -26.02 26.02 26.02z"></path>
     <path class="fil0 svg-elem-17" d="M3904.29 925.37l0 -20.03 12.48 0 0 -18.14 -12.48 0 0 -58.64 -28.45 0 -38.46 60.52 0 16.26 46.3 0 0 20.03 20.61 0zm-20.61 -38.17l-26.13 0 26.13 -40.35 0 40.35zm125.43 39.77c28.59,0 44.99,-20.76 44.99,-49.93 0,-27.43 -12.34,-50.08 -41.66,-50.08 -22.06,0 -37.15,14.37 -37.15,33.24 0,20.61 15.67,31.5 33.09,31.5 10.59,0 20.32,-5.95 24.96,-12.48 0,0.73 0,1.45 0,2.18 0,13.93 -8.27,27.29 -24.24,27.29 -8.56,0 -14.08,-2.61 -19.3,-7.55l-9.14 15.82c6.82,6.1 16.69,10.02 28.45,10.02zm5.08 -52.98c-9,0 -17.85,-4.35 -17.85,-14.51 0,-6.68 6.1,-14.22 17.13,-14.22 13.64,0 18.87,10.45 19.74,19.74 -4.65,5.66 -11.76,9 -19.01,9zm-68.52 52.98c6.39,0 11.76,-5.37 11.76,-11.76 0,-6.39 -5.37,-11.76 -11.76,-11.76 -6.39,0 -11.76,5.37 -11.76,11.76 0,6.39 5.37,11.76 11.76,11.76zm170.27 -1.6l0 -96.81 -18 0 -30.48 30.62 11.76 12.34 16.11 -16.4 0 70.25 20.61 0zm83.93 -21.92l12.87 -12.87 -23.13 -23.31 23.13 -23.31 -12.87 -12.87 -23.31 23.31 -23.14 -23.31 -13.05 12.87 23.31 23.31 -23.31 23.31 13.05 12.87 23.14 -23.31 23.31 23.31z"></path>
     <path class="fil0 svg-elem-18" d="M1225.07 5141.32l0 -69.25 -12.88 0 -21.81 21.91 8.41 8.83 11.53 -11.73 0 50.26 14.75 0zm24.93 1.14c4.57,0 8.41,-3.84 8.41,-8.41 0,-4.57 -3.84,-8.41 -8.41,-8.41 -4.57,0 -8.41,3.84 -8.41,8.41 0,4.57 3.84,8.41 8.41,8.41zm75.08 -1.14l0 -12.98 -28.24 0c17.96,-13.08 27.72,-23.36 27.72,-35.2 0,-13.81 -11.73,-22.12 -26.48,-22.12 -9.66,0 -19.94,3.53 -26.69,11.32l8.41 9.76c4.67,-4.88 10.7,-7.99 18.59,-7.99 5.71,0 11.21,3.01 11.21,9.03 0,8.51 -8.31,15.68 -36.65,36.65l0 11.52 52.12 0zm45.9 0l0 -69.25 -12.88 0 -21.81 21.91 8.41 8.83 11.53 -11.73 0 50.26 14.75 0zm60.04 -15.68l9.21 -9.21 -16.55 -16.67 16.55 -16.67 -9.21 -9.21 -16.67 16.67 -16.55 -16.67 -9.34 9.21 16.68 16.67 -16.68 16.67 9.34 9.21 16.55 -16.67 16.67 16.67z"></path>
     <path class="fil0 svg-elem-19" d="M8652.48 1649.36l0 -198.71 -36.94 0 -62.57 62.86 24.13 25.32 33.07 -33.67 0 144.19 42.3 0zm129.32 3.58c45.28,0 75.97,-29.49 75.97,-68.22 0,-42.31 -31.88,-64.65 -67.63,-64.65 -21.75,0 -41.71,12.21 -50.95,25.62 -0.3,-1.49 -0.3,-2.68 -0.3,-4.17 0,-31.58 20.56,-56.3 49.75,-56.3 17.58,0 28.9,5.36 39.62,15.49l19.07 -32.47c-14.3,-12.21 -34.56,-20.56 -58.69,-20.56 -58.69,0 -92.65,42.6 -92.65,102.78 0,56.01 25.32,102.48 85.8,102.48zm-2.38 -37.54c-27.71,0 -38.43,-21.15 -40.22,-40.22 9.53,-11.92 23.84,-18.77 38.73,-18.77 19.07,0 36.94,8.94 36.94,29.79 0,14 -12.51,29.2 -35.45,29.2zm139.45 37.24c13.11,0 24.13,-11.02 24.13,-24.13 0,-13.11 -11.03,-24.13 -24.13,-24.13 -13.11,0 -24.13,11.03 -24.13,24.13 0,13.11 11.02,24.13 24.13,24.13zm215.42 -3.28l0 -37.24 -81.03 0c51.54,-37.54 79.55,-67.03 79.55,-101 0,-39.63 -33.67,-63.46 -75.97,-63.46 -27.71,0 -57.2,10.13 -76.56,32.47l24.13 28.01c13.41,-14 30.69,-22.94 53.33,-22.94 16.39,0 32.18,8.64 32.18,25.92 0,24.43 -23.83,44.99 -105.17,105.17l0 33.07 149.55 0zm131.71 0l0 -198.71 -36.94 0 -62.56 62.86 24.13 25.32 33.07 -33.67 0 144.19 42.3 0zm172.27 -44.98l26.42 -26.42 -47.49 -47.84 47.49 -47.84 -26.42 -26.42 -47.84 47.84 -47.48 -47.84 -26.78 26.42 47.84 47.84 -47.84 47.84 26.78 26.42 47.48 -47.84 47.84 47.84z"></path>
     <path class="fil0 svg-elem-20" d="M8590.78 3327.37l0 -75.5 -14.04 0 -23.77 23.88 9.17 9.62 12.57 -12.79 0 54.78 16.07 0zm44.04 0l28.07 -64.29 0 -11.21 -56.71 0 0 14.15 38.03 0 -27.06 61.35 17.66 0zm50.04 1.25c4.98,0 9.17,-4.19 9.17,-9.17 0,-4.98 -4.19,-9.17 -9.17,-9.17 -4.98,0 -9.17,4.19 -9.17,9.17 0,4.98 4.19,9.17 9.17,9.17zm74.71 -1.25l0 -15.62 9.73 0 0 -14.15 -9.73 0 0 -45.73 -22.19 0 -29.99 47.2 0 12.68 36.11 0 0 15.62 16.07 0zm-16.07 -29.77l-20.38 0 20.38 -31.47 0 31.47zm68.15 31.13c15.85,0 30.33,-6.9 30.33,-20.94 0,-9.17 -7.24,-16.19 -16.3,-19.36 8.38,-2.94 15.06,-8.37 15.06,-17.77 0,-14.15 -15.17,-19.92 -29.09,-19.92 -14.04,0 -29.09,5.77 -29.09,19.92 0,9.4 6.56,14.83 14.94,17.77 -9.06,3.17 -16.19,10.19 -16.19,19.36 0,14.15 14.49,20.94 30.33,20.94zm0 -46.63c-4.64,-0.68 -12.79,-3.28 -12.79,-8.94 0,-5.43 5.32,-8.6 12.79,-8.6 7.36,0 12.68,3.17 12.68,8.6 0,5.66 -8.03,8.27 -12.68,8.94zm0 32.82c-7.92,0 -14.04,-3.62 -14.04,-9.17 0,-6.34 9.28,-9.39 14.04,-10.07 4.64,0.68 14.04,3.74 14.04,10.07 0,5.55 -6.34,9.17 -14.04,9.17zm92.28 -4.64l10.04 -10.04 -18.04 -18.18 18.04 -18.18 -10.04 -10.04 -18.17 18.18 -18.04 -18.18 -10.17 10.04 18.18 18.18 -18.18 18.18 10.17 10.04 18.04 -18.18 18.17 18.18z"></path>
     <path class="fil0 svg-elem-21" d="M909.98 2473.2l0 -130.47 -24.25 0 -41.08 41.27 15.85 16.63 21.71 -22.1 0 94.68 27.77 0zm46.96 2.15c8.61,0 15.84,-7.24 15.84,-15.85 0,-8.61 -7.24,-15.84 -15.84,-15.84 -8.61,0 -15.84,7.23 -15.84,15.84 0,8.61 7.24,15.85 15.84,15.85zm141.44 -2.15l0 -24.45 -53.2 0c33.84,-24.64 52.22,-44.01 52.22,-66.31 0,-26.02 -22.1,-41.67 -49.88,-41.67 -18.19,0 -37.56,6.65 -50.27,21.32l15.84 18.39c8.8,-9.19 20.15,-15.06 35.02,-15.06 10.76,0 21.12,5.67 21.12,17.02 0,16.04 -15.65,29.54 -69.05,69.05l0 21.71 98.2 0zm86.48 0l0 -130.47 -24.26 0 -41.08 41.27 15.84 16.63 21.71 -22.1 0 94.68 27.78 0zm113.11 -29.54l17.35 -17.35 -31.18 -31.41 31.18 -31.41 -17.35 -17.35 -31.41 31.41 -31.18 -31.41 -17.58 17.35 31.41 31.41 -31.41 31.41 17.58 17.35 31.18 -31.41 31.41 31.41z"></path>
     <path class="fil0 svg-elem-22" d="M2334.24 4036.4l0 -222 -41.27 0 -69.9 70.23 26.96 28.29 36.95 -37.61 0 161.09 47.26 0zm79.9 3.66c14.65,0 26.96,-12.31 26.96,-26.96 0,-14.65 -12.32,-26.96 -26.96,-26.96 -14.65,0 -26.96,12.31 -26.96,26.96 0,14.65 12.31,26.96 26.96,26.96zm240.67 -3.66l0 -41.6 -90.53 0c57.58,-41.94 88.87,-74.89 88.87,-112.83 0,-44.27 -37.61,-70.9 -84.87,-70.9 -30.95,0 -63.9,11.31 -85.54,36.28l26.96 31.29c14.98,-15.64 34.28,-25.63 59.57,-25.63 18.31,0 35.95,9.65 35.95,28.96 0,27.29 -26.63,50.26 -117.49,117.49l0 36.94 167.08 0zm147.14 0l0 -222 -41.27 0 -69.9 70.23 26.96 28.29 36.95 -37.61 0 161.09 47.26 0zm192.46 -50.26l29.52 -29.52 -53.05 -53.45 53.05 -53.45 -29.52 -29.52 -53.45 53.45 -53.05 -53.45 -29.91 29.52 53.45 53.45 -53.45 53.45 29.91 29.52 53.05 -53.45 53.45 53.45z"></path>
     <path class="fil0 svg-elem-23" d="M8524.09 4123.98l0 -191.75 -35.65 0 -60.37 60.66 23.29 24.44 31.91 -32.49 0 139.15 40.82 0zm69.02 3.16c12.65,0 23.29,-10.63 23.29,-23.29 0,-12.65 -10.64,-23.28 -23.29,-23.28 -12.65,0 -23.29,10.63 -23.29,23.28 0,12.65 10.64,23.29 23.29,23.29zm207.87 -3.16l0 -35.94 -78.19 0c49.73,-36.22 76.76,-64.69 76.76,-97.46 0,-38.24 -32.49,-61.24 -73.31,-61.24 -26.74,0 -55.2,9.77 -73.89,31.33l23.29 27.02c12.94,-13.51 29.62,-22.13 51.46,-22.13 15.81,0 31.05,8.34 31.05,25.01 0,23.57 -23,43.41 -101.48,101.48l0 31.91 144.32 0zm127.09 0l0 -191.75 -35.65 0 -60.37 60.66 23.29 24.44 31.91 -32.49 0 139.15 40.82 0zm166.24 -43.41l25.49 -25.49 -45.82 -46.16 45.82 -46.17 -25.49 -25.49 -46.17 46.17 -45.82 -46.17 -25.84 25.49 46.17 46.17 -46.17 46.16 25.84 25.49 45.82 -46.16 46.17 46.16z"></path>
     <path class="fil0 svg-elem-24" d="M995.9 4286.24l0 -130.52 -24.27 0 -41.09 41.29 15.85 16.63 21.72 -22.11 0 94.71 27.79 0zm46.98 2.15c8.61,0 15.85,-7.24 15.85,-15.85 0,-8.61 -7.24,-15.85 -15.85,-15.85 -8.61,0 -15.85,7.24 -15.85,15.85 0,8.61 7.24,15.85 15.85,15.85zm90.62 0.2c37.18,0 54.01,-33.85 54.01,-67.51 0,-33.66 -16.83,-67.32 -54.01,-67.32 -37.38,0 -54.01,33.66 -54.01,67.32 0,33.66 16.63,67.51 54.01,67.51zm0 -24.66c-18.79,0 -25.83,-18.79 -25.83,-42.86 0,-24.07 7.04,-42.66 25.83,-42.66 18.59,0 25.64,18.59 25.64,42.66 0,24.07 -7.04,42.86 -25.64,42.86zm137.19 22.31l0 -130.52 -24.26 0 -41.1 41.29 15.85 16.63 21.72 -22.11 0 94.71 27.79 0zm113.15 -29.55l17.35 -17.35 -31.19 -31.42 31.19 -31.42 -17.35 -17.35 -31.42 31.42 -31.19 -31.42 -17.58 17.35 31.42 31.42 -31.42 31.42 17.58 17.35 31.19 -31.42 31.42 31.42z"></path>
     <path class="fil0 svg-elem-25" d="M8638.17 2685.53c40.28,0 63.38,-29.24 63.38,-70.33 0,-38.64 -17.38,-70.54 -58.68,-70.54 -31.08,0 -52.34,20.24 -52.34,46.82 0,29.03 22.08,44.37 46.62,44.37 14.92,0 28.62,-8.38 35.17,-17.58 0,1.02 0,2.05 0,3.07 0,19.63 -11.65,38.44 -34.14,38.44 -12.06,0 -19.83,-3.68 -27.19,-10.63l-12.88 22.29c9.61,8.59 23.51,14.11 40.07,14.11zm7.16 -74.62c-12.68,0 -25.15,-6.13 -25.15,-20.44 0,-9.41 8.59,-20.04 24.13,-20.04 19.22,0 26.58,14.72 27.81,27.8 -6.54,7.97 -16.56,12.68 -26.78,12.68zm94.68 74.62c8.99,0 16.56,-7.57 16.56,-16.56 0,-8.99 -7.57,-16.56 -16.56,-16.56 -9,0 -16.56,7.57 -16.56,16.56 0,8.99 7.56,16.56 16.56,16.56zm89.36 0c40.28,0 63.38,-29.24 63.38,-70.33 0,-38.64 -17.38,-70.54 -58.68,-70.54 -31.08,0 -52.34,20.24 -52.34,46.82 0,29.03 22.08,44.37 46.62,44.37 14.92,0 28.62,-8.38 35.17,-17.58 0,1.02 0,2.05 0,3.07 0,19.63 -11.65,38.44 -34.14,38.44 -12.06,0 -19.83,-3.68 -27.19,-10.63l-12.88 22.29c9.61,8.59 23.51,14.11 40.07,14.11zm7.16 -74.62c-12.68,0 -25.15,-6.13 -25.15,-20.44 0,-9.41 8.59,-20.04 24.12,-20.04 19.22,0 26.58,14.72 27.81,27.8 -6.54,7.97 -16.56,12.68 -26.78,12.68zm135.36 74.83c32.92,0 54.59,-18.2 54.59,-47.23 0,-27.6 -20.65,-44.16 -43.75,-44.16 -12.47,0 -23.51,4.91 -30.06,11.45l0 -33.33 64.61 0 0 -25.55 -93.64 0 0 78.3 20.24 5.32c8.18,-7.77 17.38,-11.04 28.62,-11.04 15.54,0 24.53,8.18 24.53,20.24 0,11.04 -9.2,20.24 -25.35,20.24 -14.31,0 -26.99,-5.32 -36.19,-14.92l-16.15 20.24c11.65,12.68 28.83,20.45 52.54,20.45zm166.47 -33.33l18.13 -18.13 -32.58 -32.83 32.58 -32.83 -18.13 -18.13 -32.83 32.83 -32.58 -32.83 -18.38 18.13 32.83 32.83 -32.83 32.83 18.38 18.13 32.58 -32.83 32.83 32.83z"></path>
     <path class="fil0 svg-elem-26" d="M6352.78 713.36l0 -22.36 13.94 0 0 -20.25 -13.94 0 0 -65.47 -31.76 0 -42.95 67.57 0 18.15 51.7 0 0 22.36 23.01 0zm-23.01 -42.62l-29.17 0 29.17 -45.05 0 45.05zm69.21 44.4c7.13,0 13.13,-6 13.13,-13.13 0,-7.13 -6,-13.13 -13.13,-13.13 -7.13,0 -13.13,5.99 -13.13,13.13 0,7.13 6,13.13 13.13,13.13zm61.27 -1.78l40.19 -92.05 0 -16.04 -81.19 0 0 20.26 54.45 0 -38.73 87.83 25.28 0zm99.99 1.94c22.69,0 43.43,-9.88 43.43,-29.98 0,-13.13 -10.37,-23.17 -23.34,-27.71 11.99,-4.21 21.55,-11.99 21.55,-25.44 0,-20.26 -21.72,-28.52 -41.65,-28.52 -20.09,0 -41.65,8.27 -41.65,28.52 0,13.45 9.4,21.23 21.39,25.44 -12.97,4.54 -23.17,14.58 -23.17,27.71 0,20.25 20.74,29.98 43.43,29.98zm0 -66.76c-6.64,-0.97 -18.31,-4.7 -18.31,-12.8 0,-7.78 7.62,-12.32 18.31,-12.32 10.54,0 18.15,4.54 18.15,12.32 0,8.1 -11.5,11.83 -18.15,12.8zm0 46.99c-11.34,0 -20.09,-5.18 -20.09,-13.13 0,-9.08 13.29,-13.45 20.09,-14.42 6.65,0.97 20.1,5.35 20.1,14.42 0,7.94 -9.08,13.13 -20.1,13.13zm132.11 -6.64l14.37 -14.37 -25.83 -26.02 25.83 -26.02 -14.37 -14.37 -26.02 26.02 -25.83 -26.02 -14.56 14.37 26.02 26.02 -26.02 26.02 14.56 14.37 25.83 -26.02 26.02 26.02z"></path>
     <path class="fil0 svg-elem-27" d="M6762.54 2708.24l0 -25.12 15.65 0 0 -22.75 -15.65 0 0 -73.53 -35.67 0 -48.23 75.89 0 20.38 58.05 0 0 25.12 25.84 0zm-25.84 -47.87l-32.76 0 32.76 -50.59 0 50.59zm157.27 49.87c35.85,0 56.42,-26.03 56.42,-62.61 0,-34.4 -15.47,-62.79 -52.23,-62.79 -27.66,0 -46.59,18.02 -46.59,41.67 0,25.84 19.66,39.49 41.49,39.49 13.29,0 25.48,-7.46 31.3,-15.65 0,0.91 0,1.82 0,2.73 0,17.47 -10.37,34.22 -30.39,34.22 -10.74,0 -17.65,-3.28 -24.21,-9.47l-11.46 19.84c8.55,7.64 20.93,12.56 35.67,12.56zm6.37 -66.43c-11.28,0 -22.38,-5.46 -22.38,-18.2 0,-8.37 7.64,-17.84 21.48,-17.84 17.11,0 23.66,13.1 24.75,24.75 -5.82,7.1 -14.74,11.28 -23.84,11.28zm-85.91 66.43c8.01,0 14.74,-6.73 14.74,-14.74 0,-8.01 -6.73,-14.74 -14.74,-14.74 -8.01,0 -14.75,6.73 -14.75,14.74 0,8.01 6.74,14.74 14.75,14.74zm213.5 -2l0 -121.39 -22.56 0 -38.22 38.4 14.74 15.47 20.2 -20.56 0 88.08 25.84 0zm105.24 -27.48l16.14 -16.14 -29.01 -29.22 29.01 -29.23 -16.14 -16.14 -29.22 29.22 -29.01 -29.22 -16.36 16.14 29.23 29.23 -29.23 29.22 16.36 16.14 29.01 -29.22 29.22 29.22z"></path>
     <path class="fil0 svg-elem-28" d="M8470.66 5228.92l0 -85.06 -15.81 0 -26.78 26.91 10.33 10.84 14.15 -14.41 0 61.72 18.11 0zm114.03 1.4c5.61,0 10.33,-4.72 10.33,-10.33 0,-5.61 -4.72,-10.33 -10.33,-10.33 -5.61,0 -10.33,4.72 -10.33,10.33 0,5.61 4.72,10.33 10.33,10.33zm-66.2 0c25.12,0 39.53,-18.23 39.53,-43.87 0,-24.1 -10.84,-43.99 -36.6,-43.99 -19.38,0 -32.64,12.62 -32.64,29.2 0,18.11 13.77,27.67 29.08,27.67 9.31,0 17.85,-5.23 21.93,-10.97 0,0.64 0,1.28 0,1.91 0,12.24 -7.27,23.97 -21.3,23.97 -7.52,0 -12.37,-2.3 -16.96,-6.63l-8.03 13.9c5.99,5.36 14.66,8.8 24.99,8.8zm4.46 -46.54c-7.91,0 -15.68,-3.83 -15.68,-12.75 0,-5.87 5.36,-12.5 15.05,-12.5 11.99,0 16.58,9.18 17.34,17.34 -4.08,4.97 -10.33,7.91 -16.71,7.91zm117.47 46.54c25.12,0 39.53,-18.23 39.53,-43.87 0,-24.1 -10.84,-43.99 -36.6,-43.99 -19.38,0 -32.64,12.62 -32.64,29.2 0,18.11 13.77,27.67 29.08,27.67 9.31,0 17.85,-5.23 21.93,-10.97 0,0.64 0,1.28 0,1.91 0,12.24 -7.27,23.97 -21.3,23.97 -7.52,0 -12.37,-2.3 -16.96,-6.63l-8.03 13.9c5.99,5.36 14.66,8.8 24.99,8.8zm4.46 -46.54c-7.91,0 -15.68,-3.83 -15.68,-12.75 0,-5.87 5.36,-12.5 15.05,-12.5 11.99,0 16.58,9.18 17.34,17.34 -4.08,4.97 -10.33,7.91 -16.71,7.91zm86.47 46.67c19.38,0 32.52,-12.62 32.52,-29.2 0,-18.11 -13.64,-27.67 -28.95,-27.67 -9.31,0 -17.85,5.23 -21.81,10.97 -0.13,-0.64 -0.13,-1.15 -0.13,-1.79 0,-13.52 8.8,-24.1 21.3,-24.1 7.53,0 12.37,2.3 16.96,6.63l8.16 -13.9c-6.12,-5.23 -14.79,-8.8 -25.12,-8.8 -25.12,0 -39.66,18.24 -39.66,44 0,23.97 10.84,43.87 36.73,43.87zm-1.02 -16.07c-11.86,0 -16.45,-9.05 -17.22,-17.22 4.08,-5.1 10.2,-8.03 16.58,-8.03 8.16,0 15.81,3.82 15.81,12.75 0,5.99 -5.36,12.5 -15.18,12.5zm102.81 -4.72l11.31 -11.31 -20.33 -20.48 20.33 -20.48 -11.31 -11.31 -20.48 20.48 -20.33 -20.48 -11.46 11.31 20.48 20.48 -20.48 20.48 11.46 11.31 20.33 -20.48 20.48 20.48z"></path>
     <path class="fil0 svg-elem-29" d="M3467.52 5583.25l0 -127.88 -23.77 0 -40.26 40.45 15.53 16.3 21.28 -21.66 0 92.79 27.22 0zm75.75 2.3c30.68,0 50.42,-15.53 50.42,-37.58 0,-19.17 -16.87,-29.33 -29.91,-30.68 14.19,-2.49 27.99,-13.04 27.99,-29.14 0,-21.28 -18.4,-34.7 -48.31,-34.7 -22.43,0 -38.54,8.63 -48.89,20.33l13.61 17.06c9.01,-8.63 20.13,-13.23 32.4,-13.23 13.42,0 23.78,4.99 23.78,15.15 0,9.39 -9.4,13.61 -23.58,13.61 -4.79,0 -13.61,0 -15.91,-0.19l0 24.54c1.92,-0.19 10.55,-0.38 15.91,-0.38 17.83,0 25.69,4.6 25.69,14.76 0,9.59 -8.63,16.3 -24.16,16.3 -12.46,0 -26.46,-5.37 -35.28,-14.57l-14.19 18.21c9.4,11.5 26.84,20.51 50.43,20.51zm91.66 -0.19c8.44,0 15.53,-7.09 15.53,-15.53 0,-8.44 -7.09,-15.53 -15.53,-15.53 -8.44,0 -15.53,7.09 -15.53,15.53 0,8.44 7.09,15.53 15.53,15.53zm92.04 0.19c30.87,0 51.19,-17.06 51.19,-44.29 0,-25.89 -19.36,-41.41 -41.03,-41.41 -11.69,0 -22.05,4.6 -28.18,10.74l0 -31.25 60.59 0 0 -23.96 -87.81 0 0 73.43 18.98 4.99c7.67,-7.29 16.3,-10.35 26.84,-10.35 14.57,0 23.01,7.67 23.01,18.98 0,10.35 -8.63,18.98 -23.77,18.98 -13.42,0 -25.31,-4.99 -33.94,-14l-15.15 18.98c10.93,11.89 27.03,19.17 49.27,19.17zm159.91 -2.3l0 -26.46 16.49 0 0 -23.97 -16.49 0 0 -77.45 -37.58 0 -50.8 79.95 0 21.48 61.16 0 0 26.46 27.23 0zm-27.23 -50.43l-34.51 0 34.51 -53.3 0 53.3zm146.71 21.48l17 -17 -30.56 -30.79 30.56 -30.79 -17 -17 -30.79 30.78 -30.56 -30.78 -17.23 17 30.79 30.79 -30.79 30.79 17.23 17 30.56 -30.78 30.79 30.78z"></path>
     <path class="fil0 svg-elem-30" d="M1603.65 778.18l0 -126.11 -23.44 0 -39.71 39.9 15.31 16.07 20.99 -21.37 0 91.51 26.85 0zm45.39 2.08c8.32,0 15.32,-6.99 15.32,-15.31 0,-8.32 -7,-15.32 -15.32,-15.32 -8.32,0 -15.31,7 -15.31,15.32 0,8.32 7,15.31 15.31,15.31zm87.56 0.19c35.92,0 52.19,-32.71 52.19,-65.23 0,-32.52 -16.26,-65.04 -52.19,-65.04 -36.11,0 -52.19,32.52 -52.19,65.04 0,32.52 16.07,65.23 52.19,65.23zm0 -23.82c-18.15,0 -24.96,-18.15 -24.96,-41.41 0,-23.25 6.81,-41.22 24.96,-41.22 17.96,0 24.77,17.96 24.77,41.22 0,23.26 -6.8,41.41 -24.77,41.41zm132.56 21.56l0 -126.11 -23.44 0 -39.71 39.9 15.31 16.07 20.99 -21.37 0 91.51 26.85 0zm109.33 -28.55l16.77 -16.77 -30.14 -30.36 30.14 -30.36 -16.77 -16.77 -30.36 30.36 -30.13 -30.36 -16.99 16.77 30.36 30.36 -30.36 30.36 16.99 16.77 30.13 -30.36 30.36 30.36z"></path>
    </g>
   </g>
  </g>
  <polygon class="fil1 svg-elem-31" points="-0,0 10198.17,0 10198.17,6189.2 -0,6189.2 "></polygon>
 </g>
</svg>
