<!--?xml version="1.0" encoding="UTF-8"?-->

<!-- Creator: CorelDRAW 2021 (64-Bit) -->
<svg xmlns="http://www.w3.org/2000/svg" xml:space="preserve" width="100%" height="100%" version="1.1" style="shape-rendering:geometricPrecision; text-rendering:geometricPrecision; image-rendering:optimizeQuality; fill-rule:evenodd; clip-rule:evenodd;" viewBox="0 0 23087.09 12854.58" xmlns:xlink="http://www.w3.org/1999/xlink" xmlns:xodm="http://www.corel.com/coreldraw/odm/2003">
 <defs>
  <style type="text/css">
/***************************************************
 * Generated by SVG Artista on 1/16/2025, 11:39:22 PM
 * MIT license (https://opensource.org/licenses/MIT)
 * W. https://svgartista.net
 **************************************************/

@-webkit-keyframes animate-svg-fill-1{
    0%{
         fill:transparent;
         filter: blur(85px); 
    }
     50%{
         fill:#ffffff21;
         filter: blur(35px);
    }
     100%{
         fill:transparent;
         filter: blur(0px);
    }
}
@keyframes animate-svg-fill-1{
    0%{
         fill:transparent;
         filter: blur(85px); 
    }
     50%{
         fill:#ffffff21;
         filter: blur(35px);
    }
     100%{
         fill:transparent;
         filter: blur(0px);
    }
}
.svg-elem-1{
    -webkit-animation:animate-svg-fill-1 1.4s cubic-bezier(0.55,0.085,0.68,0.53) 0.8s both infinite;
    animation:animate-svg-fill-1 1.4s cubic-bezier(0.55,0.085,0.68,0.53) 0.8s both infinite
}
@-webkit-keyframes animate-svg-fill-2{
    0%{
         fill:transparent;
         filter: blur(85px); 
    }
     50%{
         fill:#ffffff21;
         filter: blur(35px);
    }
     100%{
         fill:transparent;
         filter: blur(0px);
    }
}
@keyframes animate-svg-fill-2{
    0%{
         fill:transparent;
         filter: blur(85px); 
    }
     50%{
         fill:#ffffff21;
         filter: blur(35px);
    }
     100%{
         fill:transparent;
         filter: blur(0px);
    }
}
.svg-elem-2{
    -webkit-animation:animate-svg-fill-2 1.4s cubic-bezier(0.55,0.085,0.68,0.53) 1.31s both infinite;
    animation:animate-svg-fill-2 1.4s cubic-bezier(0.55,0.085,0.68,0.53) 1.31s both infinite
}
@-webkit-keyframes animate-svg-fill-3{
    0%{
         fill:transparent;
         filter: blur(85px); 
    }
     50%{
         fill:#ffffff21;
         filter: blur(35px);
    }
     100%{
         fill:transparent;
         filter: blur(0px);
    }
}
@keyframes animate-svg-fill-3{
    0%{
         fill:transparent;
         filter: blur(85px); 
    }
     50%{
         fill:#ffffff21;
         filter: blur(35px);
    }
     100%{
         fill:transparent;
         filter: blur(0px);
    }
}
.svg-elem-3{
    -webkit-animation:animate-svg-fill-3 1.4s cubic-bezier(0.55,0.085,0.68,0.53) 1.82s both infinite;
    animation:animate-svg-fill-3 1.4s cubic-bezier(0.55,0.085,0.68,0.53) 1.82s both infinite
}
@-webkit-keyframes animate-svg-fill-4{
    0%{
         fill:transparent;
         filter: blur(85px); 
    }
     50%{
         fill:#ffffff21;
         filter: blur(35px);
    }
     100%{
         fill:transparent;
         filter: blur(0px);
    }
}
@keyframes animate-svg-fill-4{
    0%{
         fill:transparent;
         filter: blur(85px); 
    }
     50%{
         fill:#ffffff21;
         filter: blur(35px);
    }
     100%{
         fill:transparent;
         filter: blur(0px);
    }
}
.svg-elem-4{
    -webkit-animation:animate-svg-fill-4 1.4s cubic-bezier(0.55,0.085,0.68,0.53) 2.33s both infinite;
    animation:animate-svg-fill-4 1.4s cubic-bezier(0.55,0.085,0.68,0.53) 2.33s both infinite
}
@-webkit-keyframes animate-svg-fill-5{
    0%{
         fill:transparent;
         filter: blur(85px); 
    }
     50%{
         fill:#ffffff21;
         filter: blur(35px);
    }
     100%{
         fill:transparent;
         filter: blur(0px);
    }
}
@keyframes animate-svg-fill-5{
    0%{
         fill:transparent;
         filter: blur(85px); 
    }
     50%{
         fill:#ffffff21;
         filter: blur(35px);
    }
     100%{
         fill:transparent;
         filter: blur(0px);
    }
}
.svg-elem-5{
    -webkit-animation:animate-svg-fill-5 1.4s cubic-bezier(0.55,0.085,0.68,0.53) 2.84s both infinite;
    animation:animate-svg-fill-5 1.4s cubic-bezier(0.55,0.085,0.68,0.53) 2.84s both infinite
}
@-webkit-keyframes animate-svg-fill-6{
    0%{
         fill:transparent;
         filter: blur(85px); 
    }
     50%{
         fill:#ffffff21;
         filter: blur(35px);
    }
     100%{
         fill:transparent;
         filter: blur(0px);
    }
}
@keyframes animate-svg-fill-6{
    0%{
         fill:transparent;
         filter: blur(85px); 
    }
     50%{
         fill:#ffffff21;
         filter: blur(35px);
    }
     100%{
         fill:transparent;
         filter: blur(0px);
    }
}
.svg-elem-6{
    -webkit-animation:animate-svg-fill-6 1.4s cubic-bezier(0.55,0.085,0.68,0.53) 3.3499999999999996s both infinite;
    animation:animate-svg-fill-6 1.4s cubic-bezier(0.55,0.085,0.68,0.53) 3.3499999999999996s both infinite
}
@-webkit-keyframes animate-svg-fill-7{
    0%{
         fill:transparent;
         filter: blur(85px); 
    }
     50%{
         fill:#ffffff21;
         filter: blur(35px);
    }
     100%{
         fill:transparent;
         filter: blur(0px);
    }
}
@keyframes animate-svg-fill-7{
    0%{
         fill:transparent;
         filter: blur(85px); 
    }
     50%{
         fill:#ffffff21;
         filter: blur(35px);
    }
     100%{
         fill:transparent;
         filter: blur(0px);
    }
}
.svg-elem-7{
    -webkit-animation:animate-svg-fill-7 1.4s cubic-bezier(0.55,0.085,0.68,0.53) 3.8600000000000003s both infinite;
    animation:animate-svg-fill-7 1.4s cubic-bezier(0.55,0.085,0.68,0.53) 3.8600000000000003s both infinite
}
@-webkit-keyframes animate-svg-fill-8{
    0%{
         fill:transparent;
         filter: blur(85px); 
    }
     50%{
         fill:#ffffff21;
         filter: blur(35px);
    }
     100%{
         fill:transparent;
         filter: blur(0px);
    }
}
@keyframes animate-svg-fill-8{
    0%{
         fill:transparent;
         filter: blur(85px); 
    }
     50%{
         fill:#ffffff21;
         filter: blur(35px);
    }
     100%{
         fill:transparent;
         filter: blur(0px);
    }
}
.svg-elem-8{
    -webkit-animation:animate-svg-fill-8 1.4s cubic-bezier(0.55,0.085,0.68,0.53) 4.37s both infinite;
    animation:animate-svg-fill-8 1.4s cubic-bezier(0.55,0.085,0.68,0.53) 4.37s both infinite
}
@-webkit-keyframes animate-svg-fill-9{
    0%{
         fill:transparent;
         filter: blur(85px); 
    }
     50%{
         fill:#ffffff21;
         filter: blur(35px);
    }
     100%{
         fill:transparent;
         filter: blur(0px);
    }
}
@keyframes animate-svg-fill-9{
    0%{
         fill:transparent;
         filter: blur(85px); 
    }
     50%{
         fill:#ffffff21;
         filter: blur(35px);
    }
     100%{
         fill:transparent;
         filter: blur(0px);
    }
}
.svg-elem-9{
    -webkit-animation:animate-svg-fill-9 1.4s cubic-bezier(0.55,0.085,0.68,0.53) 4.88s both infinite;
    animation:animate-svg-fill-9 1.4s cubic-bezier(0.55,0.085,0.68,0.53) 4.88s both infinite
}
@-webkit-keyframes animate-svg-fill-10{
    0%{
         fill:transparent;
         filter: blur(85px); 
    }
     50%{
         fill:#ffffff21;
         filter: blur(35px);
    }
     100%{
         fill:transparent;
         filter: blur(0px);
    }
}
@keyframes animate-svg-fill-10{
    0%{
         fill:transparent;
         filter: blur(85px); 
    }
     50%{
         fill:#ffffff21;
         filter: blur(35px);
    }
     100%{
         fill:transparent;
         filter: blur(0px);
    }
}
.svg-elem-10{
    -webkit-animation:animate-svg-fill-10 1.4s cubic-bezier(0.55,0.085,0.68,0.53) 5.39s both infinite;
    animation:animate-svg-fill-10 1.4s cubic-bezier(0.55,0.085,0.68,0.53) 5.39s both infinite
}
@-webkit-keyframes animate-svg-fill-11{
    0%{
         fill:transparent;
         filter: blur(85px); 
    }
     50%{
         fill:#ffffff21;
         filter: blur(35px);
    }
     100%{
         fill:transparent;
         filter: blur(0px);
    }
}
@keyframes animate-svg-fill-11{
    0%{
         fill:transparent;
         filter: blur(85px); 
    }
     50%{
         fill:#ffffff21;
         filter: blur(35px);
    }
     100%{
         fill:transparent;
         filter: blur(0px);
    }
}
.svg-elem-11{
    -webkit-animation:animate-svg-fill-11 1.4s cubic-bezier(0.55,0.085,0.68,0.53) 5.8999999999999995s both infinite;
    animation:animate-svg-fill-11 1.4s cubic-bezier(0.55,0.085,0.68,0.53) 5.8999999999999995s both infinite
}
@-webkit-keyframes animate-svg-fill-12{
    0%{
         fill:transparent;
         filter: blur(85px); 
    }
     50%{
         fill:#ffffff21;
         filter: blur(35px);
    }
     100%{
         fill:transparent;
         filter: blur(0px);
    }
}
@keyframes animate-svg-fill-12{
    0%{
         fill:transparent;
         filter: blur(85px); 
    }
     50%{
         fill:#ffffff21;
         filter: blur(35px);
    }
     100%{
         fill:transparent;
         filter: blur(0px);
    }
}
.svg-elem-12{
    -webkit-animation:animate-svg-fill-12 1.4s cubic-bezier(0.55,0.085,0.68,0.53) 6.41s both infinite;
    animation:animate-svg-fill-12 1.4s cubic-bezier(0.55,0.085,0.68,0.53) 6.41s both infinite
}
@-webkit-keyframes animate-svg-fill-13{
    0%{
         fill:transparent;
         filter: blur(85px); 
    }
     50%{
         fill:#ffffff21;
         filter: blur(35px);
    }
     100%{
         fill:transparent;
         filter: blur(0px);
    }
}
@keyframes animate-svg-fill-13{
    0%{
         fill:transparent;
         filter: blur(85px); 
    }
     50%{
         fill:#ffffff21;
         filter: blur(35px);
    }
     100%{
         fill:transparent;
         filter: blur(0px);
    }
}
.svg-elem-13{
    -webkit-animation:animate-svg-fill-13 1.4s cubic-bezier(0.55,0.085,0.68,0.53) 6.92s both infinite;
    animation:animate-svg-fill-13 1.4s cubic-bezier(0.55,0.085,0.68,0.53) 6.92s both infinite
}
@-webkit-keyframes animate-svg-fill-14{
    0%{
         fill:transparent;
         filter: blur(85px); 
    }
     50%{
         fill:#ffffff21;
         filter: blur(35px);
    }
     100%{
         fill:transparent;
         filter: blur(0px);
    }
}
@keyframes animate-svg-fill-14{
    0%{
         fill:transparent;
         filter: blur(85px); 
    }
     50%{
         fill:#ffffff21;
         filter: blur(35px);
    }
     100%{
         fill:transparent;
         filter: blur(0px);
    }
}
.svg-elem-14{
    -webkit-animation:animate-svg-fill-14 1.4s cubic-bezier(0.55,0.085,0.68,0.53) 7.43s both infinite;
    animation:animate-svg-fill-14 1.4s cubic-bezier(0.55,0.085,0.68,0.53) 7.43s both infinite
}
@-webkit-keyframes animate-svg-fill-15{
    0%{
         fill:transparent;
         filter: blur(85px); 
    }
     50%{
         fill:#ffffff21;
         filter: blur(35px);
    }
     100%{
         fill:transparent;
         filter: blur(0px);
    }
}
@keyframes animate-svg-fill-15{
    0%{
         fill:transparent;
         filter: blur(85px); 
    }
     50%{
         fill:#ffffff21;
         filter: blur(35px);
    }
     100%{
         fill:transparent;
         filter: blur(0px);
    }
}
.svg-elem-15{
    -webkit-animation:animate-svg-fill-15 1.4s cubic-bezier(0.55,0.085,0.68,0.53) 7.94s both infinite;
    animation:animate-svg-fill-15 1.4s cubic-bezier(0.55,0.085,0.68,0.53) 7.94s both infinite
}
@-webkit-keyframes animate-svg-fill-16{
    0%{
         fill:transparent;
         filter: blur(85px); 
    }
     50%{
         fill:#ffffff21;
         filter: blur(35px);
    }
     100%{
         fill:transparent;
         filter: blur(0px);
    }
}
@keyframes animate-svg-fill-16{
    0%{
         fill:transparent;
         filter: blur(85px); 
    }
     50%{
         fill:#ffffff21;
         filter: blur(35px);
    }
     100%{
         fill:transparent;
         filter: blur(0px);
    }
}
.svg-elem-16{
    -webkit-animation:animate-svg-fill-16 1.4s cubic-bezier(0.55,0.085,0.68,0.53) 8.450000000000001s both infinite;
    animation:animate-svg-fill-16 1.4s cubic-bezier(0.55,0.085,0.68,0.53) 8.450000000000001s both infinite
}



    .fil0 {fill:white;fill-rule:nonzero;}
   
  </style>
 </defs>
 <g id="Слой_x0020_1">
  <metadata id="CorelCorpID_0Corel-Layer"></metadata>
  <path class="fil0 svg-elem-1" d="M16965.89 4039.88l0 -494.99 -92.03 0 -155.84 156.58 60.11 63.08 82.37 -83.86 0 359.19 105.39 0zm178.17 8.16c32.65,0 60.11,-27.46 60.11,-60.11 0,-32.65 -27.46,-60.11 -60.11,-60.11 -32.65,0 -60.11,27.46 -60.11,60.11 0,32.65 27.46,60.11 60.11,60.11zm343.67 0.74c141,0 204.82,-128.38 204.82,-256.04 0,-127.64 -63.82,-255.28 -204.82,-255.28 -141.75,0 -204.83,127.64 -204.83,255.28 0,127.65 63.08,256.04 204.83,256.04zm0 -93.51c-71.25,0 -97.97,-71.24 -97.97,-162.53 0,-91.28 26.72,-161.78 97.97,-161.78 70.5,0 97.22,70.5 97.22,161.78 0,91.29 -26.72,162.53 -97.22,162.53zm520.29 84.6l0 -494.99 -92.03 0 -155.84 156.58 60.11 63.08 82.37 -83.86 0 359.19 105.39 0zm429.13 -112.06l65.81 -65.81 -118.29 -119.17 118.29 -119.17 -65.81 -65.81 -119.17 119.17 -118.29 -119.17 -66.7 65.81 119.17 119.17 -119.17 119.17 66.7 65.81 118.29 -119.17 119.17 119.17z"></path>
  <path class="fil0 svg-elem-2" d="M9446.02 1142.76l0 -1125.88 -209.31 0 -354.47 356.16 136.73 143.48 187.36 -190.75 0 816.98 239.69 0zm1009.56 0l0 -232.94 145.16 0 0 -211 -145.16 0 0 -681.94 -330.84 0 -447.32 703.88 0 189.05 538.46 0 0 232.94 239.7 0zm-239.7 -443.94l-303.83 0 303.83 -469.25 0 469.25zm720.91 462.51c74.27,0 136.73,-62.46 136.73,-136.73 0,-74.27 -62.46,-136.73 -136.73,-136.73 -74.27,0 -136.73,62.46 -136.73,136.73 0,74.27 62.46,136.73 136.73,136.73zm1220.54 -18.57l0 -211 -459.13 0c292.02,-212.69 450.69,-379.8 450.69,-572.22 0,-224.5 -190.74,-359.54 -430.43,-359.54 -156.99,0 -324.1,57.39 -433.82,183.99l136.73 158.67c75.96,-79.34 173.87,-129.97 302.15,-129.97 92.84,0 182.3,48.94 182.3,146.85 0,138.42 -135.04,254.88 -595.85,595.85l0 187.37 847.37 0zm1090.57 0l0 -211 -459.13 0c292.02,-212.69 450.69,-379.8 450.69,-572.22 0,-224.5 -190.74,-359.54 -430.43,-359.54 -156.99,0 -324.1,57.39 -433.82,183.99l136.73 158.67c75.96,-79.34 173.87,-129.97 302.15,-129.97 92.84,0 182.3,48.94 182.3,146.85 0,138.42 -135.04,254.88 -595.85,595.85l0 187.37 847.37 0zm950.75 -254.88l149.68 -149.69 -269.04 -271.06 269.04 -271.06 -149.68 -149.69 -271.07 271.07 -269.04 -271.07 -151.71 149.69 271.06 271.06 -271.06 271.06 151.71 149.69 269.04 -271.06 271.07 271.06z"></path>
  <path class="fil0 svg-elem-3" d="M810.04 3764.02l0 -1617.67 -300.73 0 -509.31 511.74 196.45 206.14 269.21 -274.05 0 1173.83 344.39 0zm943.64 0l601.47 -1377.56 0 -240.1 -1215.07 0 0 303.16 814.89 0 -579.65 1314.5 378.35 0zm844.19 26.68c106.71,0 196.45,-89.74 196.45,-196.45 0,-106.71 -89.74,-196.45 -196.45,-196.45 -106.72,0 -196.45,89.74 -196.45,196.45 0,106.72 89.74,196.45 196.45,196.45zm1060.04 0c477.79,0 751.84,-346.82 751.84,-834.3 0,-458.38 -206.14,-836.72 -696.05,-836.72 -368.64,0 -620.87,240.1 -620.87,555.39 0,344.39 261.93,526.29 552.96,526.29 177.05,0 339.54,-99.44 417.15,-208.57 0,12.12 0,24.25 0,36.38 0,232.83 -138.25,455.95 -405.03,455.95 -143.09,0 -235.25,-43.66 -322.56,-126.12l-152.79 264.35c113.99,101.86 278.9,167.35 475.35,167.35zm84.89 -885.23c-150.37,0 -298.31,-72.76 -298.31,-242.53 0,-111.56 101.86,-237.67 286.18,-237.67 227.98,0 315.28,174.62 329.84,329.84 -77.61,94.58 -196.45,150.37 -317.71,150.37zm1598.46 887.65c339.54,0 649.98,-147.94 649.98,-448.68 0,-196.45 -155.22,-346.82 -349.24,-414.73 179.47,-63.05 322.56,-179.47 322.56,-380.77 0,-303.16 -324.99,-426.85 -623.3,-426.85 -300.73,0 -623.29,123.69 -623.29,426.85 0,201.3 140.67,317.72 320.14,380.77 -194.02,67.91 -346.82,218.27 -346.82,414.73 0,303.16 310.44,448.68 649.97,448.68zm0 -999.22c-99.43,-14.55 -274.05,-70.33 -274.05,-191.6 0,-116.41 113.99,-184.32 274.05,-184.32 157.65,0 271.64,67.91 271.64,184.32 0,121.27 -172.19,177.05 -271.64,191.6zm0 703.33c-169.76,0 -300.73,-77.61 -300.73,-196.45 0,-135.81 198.88,-201.3 300.73,-215.85 99.44,14.55 300.74,80.04 300.74,215.85 0,118.84 -135.81,196.45 -300.74,196.45zm1977.2 -99.42l215.07 -215.07 -386.54 -389.45 386.54 -389.46 -215.07 -215.07 -389.45 389.46 -386.54 -389.46 -217.98 215.07 389.45 389.46 -389.45 389.45 217.98 215.07 386.54 -389.46 389.45 389.46z"></path>
  <path class="fil0 svg-elem-4" d="M2975.84 5968.26l0 -1129.39 -209.97 0 -355.58 357.27 137.15 143.93 187.95 -191.34 0 819.53 240.44 0zm406.51 18.63c74.5,0 137.15,-62.65 137.15,-137.15 0,-74.51 -62.65,-137.15 -137.15,-137.15 -74.5,0 -137.15,62.64 -137.15,137.15 0,74.5 62.65,137.15 137.15,137.15zm784.11 1.69c321.72,0 467.34,-292.93 467.34,-584.17 0,-291.25 -145.62,-582.49 -467.34,-582.49 -323.41,0 -467.34,291.24 -467.34,582.49 0,291.24 143.93,584.17 467.34,584.17zm0 -213.35c-162.56,0 -223.51,-162.55 -223.51,-370.81 0,-208.28 60.96,-369.13 223.51,-369.13 160.86,0 221.81,160.86 221.81,369.13 0,208.27 -60.96,370.81 -221.81,370.81zm1187.11 193.03l0 -1129.39 -209.97 0 -355.58 357.27 137.15 143.93 187.95 -191.34 0 819.53 240.44 0zm979.11 -255.67l150.15 -150.16 -269.87 -271.9 269.87 -271.91 -150.15 -150.15 -271.91 271.9 -269.87 -271.9 -152.18 150.15 271.9 271.91 -271.9 271.9 152.18 150.16 269.87 -271.91 271.91 271.91z"></path>
  <path class="fil0 svg-elem-5" d="M11275.28 4938.57l0 -1123.48 -208.86 0 -353.72 355.4 136.44 143.18 186.97 -190.34 0 815.24 239.18 0zm731.15 20.22c256.03,0 429.52,-166.76 429.52,-385.73 0,-239.19 -180.23,-365.52 -382.36,-365.52 -122.96,0 -235.81,69.06 -288.02,144.86 -1.69,-8.42 -1.69,-15.16 -1.69,-23.58 0,-178.55 116.22,-318.35 281.29,-318.35 99.38,0 163.38,30.32 224.02,87.59l107.8 -183.6c-80.85,-69.06 -195.39,-116.22 -331.82,-116.22 -331.82,0 -523.84,240.87 -523.84,581.11 0,316.67 143.18,579.43 485.1,579.43zm-13.47 -212.23c-156.65,0 -217.29,-119.59 -227.39,-227.39 53.9,-67.38 134.75,-106.12 218.96,-106.12 107.8,0 208.86,50.53 208.86,168.44 0,79.17 -70.74,165.07 -200.44,165.07zm788.42 210.55c74.11,0 136.44,-62.32 136.44,-136.44 0,-74.11 -62.33,-136.44 -136.44,-136.44 -74.12,0 -136.44,62.33 -136.44,136.44 0,74.12 62.32,136.44 136.44,136.44zm1217.94 -18.53l0 -210.55 -458.15 0c291.4,-212.23 449.73,-378.99 449.73,-571.01 0,-224.02 -190.34,-358.77 -429.52,-358.77 -156.64,0 -323.41,57.27 -432.89,183.6l136.44 158.33c75.8,-79.17 173.49,-129.7 301.5,-129.7 92.64,0 181.92,48.84 181.92,146.54 0,138.13 -134.76,254.35 -594.59,594.59l0 186.97 845.56 0zm744.63 0l0 -1123.48 -208.86 0 -353.72 355.4 136.44 143.18 186.97 -190.34 0 815.24 239.18 0zm973.99 -254.34l149.37 -149.37 -268.46 -270.48 268.46 -270.49 -149.37 -149.37 -270.49 270.48 -268.46 -270.48 -151.39 149.37 270.49 270.49 -270.49 270.48 151.39 149.37 268.46 -270.48 270.49 270.48z"></path>
  <path class="fil0 svg-elem-6" d="M16126.26 2896.1l0 -1449.01 -269.38 0 -456.21 458.38 175.96 184.66 241.13 -245.48 0 1051.45 308.49 0zm1942.5 23.9c95.59,0 175.97,-80.39 175.97,-175.97 0,-95.59 -80.39,-175.96 -175.97,-175.96 -95.59,0 -175.96,80.38 -175.96,175.96 0,95.59 80.38,175.97 175.96,175.97zm-1127.67 0c427.97,0 673.46,-310.66 673.46,-747.32 0,-410.59 -184.66,-749.49 -623.49,-749.49 -330.21,0 -556.15,215.07 -556.15,497.48 0,308.49 234.63,471.42 495.32,471.42 158.59,0 304.14,-89.07 373.66,-186.83 0,10.87 0,21.73 0,32.58 0,208.56 -123.83,408.42 -362.8,408.42 -128.17,0 -210.72,-39.11 -288.93,-112.97l-136.86 236.79c102.1,91.25 249.83,149.91 425.79,149.91zm76.04 -792.94c-134.69,0 -267.21,-65.18 -267.21,-217.25 0,-99.93 91.25,-212.89 256.35,-212.89 204.21,0 282.41,156.41 295.45,295.44 -69.52,84.73 -175.97,134.7 -284.59,134.7zm2001.16 792.94c427.97,0 673.46,-310.66 673.46,-747.32 0,-410.59 -184.66,-749.49 -623.49,-749.49 -330.21,0 -556.15,215.07 -556.15,497.48 0,308.49 234.63,471.42 495.32,471.42 158.59,0 304.14,-89.07 373.66,-186.83 0,10.87 0,21.73 0,32.58 0,208.56 -123.83,408.42 -362.8,408.42 -128.17,0 -210.72,-39.11 -288.93,-112.97l-136.86 236.79c102.1,91.25 249.83,149.91 425.79,149.91zm76.04 -792.94c-134.69,0 -267.21,-65.18 -267.21,-217.25 0,-99.93 91.25,-212.89 256.35,-212.89 204.21,0 282.41,156.41 295.45,295.44 -69.52,84.73 -175.97,134.7 -284.59,134.7zm1473.09 795.1c330.2,0 553.97,-215.07 553.97,-497.48 0,-308.49 -232.45,-471.42 -493.14,-471.42 -158.59,0 -304.14,89.07 -371.49,186.83 -2.18,-10.87 -2.18,-19.55 -2.18,-30.42 0,-230.28 149.9,-410.59 362.8,-410.59 128.18,0 210.72,39.1 288.94,112.97l139.04 -236.8c-104.28,-89.07 -252,-149.9 -427.97,-149.9 -427.97,0 -675.62,310.66 -675.62,749.49 0,408.41 184.66,747.31 625.66,747.31zm-17.38 -273.73c-202.03,0 -280.24,-154.24 -293.28,-293.28 69.52,-86.89 173.8,-136.86 282.42,-136.86 139.03,0 269.38,65.18 269.38,217.24 0,102.1 -91.24,212.9 -258.52,212.9zm1751.52 -80.37l192.65 -192.65 -346.25 -348.85 346.25 -348.85 -192.65 -192.65 -348.85 348.85 -346.25 -348.85 -195.25 192.65 348.85 348.85 -348.85 348.85 195.25 192.65 346.25 -348.85 348.85 348.85z"></path>
  <path class="fil0 svg-elem-7" d="M19057.01 6875.84l0 -1106.38 -205.68 0 -348.34 349.99 134.36 140.99 184.13 -187.44 0 802.83 235.54 0zm398.23 18.25c72.98,0 134.36,-61.37 134.36,-134.36 0,-72.99 -61.37,-134.36 -134.36,-134.36 -72.98,0 -134.36,61.37 -134.36,134.36 0,72.98 61.37,134.36 134.36,134.36zm1199.41 -18.25l0 -207.35 -451.18 0c286.96,-209 442.88,-373.21 442.88,-562.31 0,-220.61 -187.44,-353.31 -422.98,-353.31 -154.26,0 -318.47,56.4 -426.29,180.8l134.36 155.92c74.65,-77.96 170.86,-127.72 296.92,-127.72 91.23,0 179.14,48.1 179.14,144.31 0,136.02 -132.69,250.47 -585.53,585.54l0 184.12 832.69 0zm733.3 0l0 -1106.38 -205.68 0 -348.34 349.99 134.36 140.99 184.13 -187.44 0 802.83 235.54 0zm959.16 -250.47l147.1 -147.09 -264.38 -266.37 264.38 -266.37 -147.1 -147.1 -266.37 266.37 -264.38 -266.37 -149.08 147.1 266.37 266.37 -266.37 266.37 149.08 147.09 264.38 -266.36 266.37 266.36z"></path>
  <path class="fil0 svg-elem-8" d="M21029.54 9465.12l0 -426.86 -79.35 0 -134.4 135.04 51.84 54.4 71.04 -72.32 0 309.74 90.88 0zm248.99 0l158.71 -363.5 0 -63.36 -320.62 0 0 79.99 215.02 0 -152.95 346.86 99.83 0zm282.91 7.04c28.16,0 51.84,-23.68 51.84,-51.84 0,-28.16 -23.68,-51.84 -51.84,-51.84 -28.16,0 -51.84,23.68 -51.84,51.84 0,28.16 23.68,51.84 51.84,51.84zm422.42 -7.04l0 -88.31 55.04 0 0 -80 -55.04 0 0 -258.54 -125.43 0 -169.58 266.87 0 71.68 204.15 0 0 88.31 90.87 0zm-90.87 -168.31l-115.2 0 115.2 -177.91 0 177.91zm385.31 175.99c89.59,0 171.5,-39.03 171.5,-118.39 0,-51.84 -40.95,-91.52 -92.15,-109.44 47.36,-16.63 85.11,-47.35 85.11,-100.47 0,-79.99 -85.75,-112.63 -164.47,-112.63 -79.36,0 -164.47,32.64 -164.47,112.63 0,53.12 37.12,83.84 84.47,100.47 -51.2,17.92 -91.51,57.6 -91.51,109.44 0,79.99 81.91,118.39 171.51,118.39zm0 -263.66c-26.24,-3.84 -72.32,-18.56 -72.32,-50.56 0,-30.72 30.08,-48.64 72.32,-48.64 41.59,0 71.67,17.92 71.67,48.64 0,32 -45.43,46.72 -71.67,50.56zm0 185.59c-44.8,0 -79.36,-20.48 -79.36,-51.84 0,-35.83 52.48,-53.12 79.36,-56.95 26.24,3.84 79.35,21.12 79.35,56.95 0,31.36 -35.84,51.84 -79.35,51.84zm521.72 -26.23l56.75 -56.76 -101.99 -102.76 101.99 -102.77 -56.75 -56.75 -102.76 102.77 -102 -102.77 -57.52 56.75 102.76 102.77 -102.76 102.76 57.52 56.76 102 -102.77 102.76 102.77z"></path>
  <path class="fil0 svg-elem-9" d="M14993.72 9847.18l0 -802.09 -149.11 0 -252.53 253.73 97.4 102.22 133.48 -135.89 0 582.03 170.76 0zm499.15 14.43c168.36,0 322.28,-73.36 322.28,-222.47 0,-97.4 -76.97,-171.96 -173.17,-205.63 88.98,-31.26 159.94,-88.98 159.94,-188.79 0,-150.32 -161.14,-211.65 -309.05,-211.65 -149.11,0 -309.05,61.32 -309.05,211.65 0,99.81 69.75,157.53 158.73,188.79 -96.2,33.67 -171.96,108.23 -171.96,205.63 0,150.32 153.92,222.47 322.28,222.47zm0 -495.45c-49.3,-7.22 -135.88,-34.87 -135.88,-95 0,-57.72 56.52,-91.39 135.88,-91.39 78.17,0 134.68,33.67 134.68,91.39 0,60.13 -85.38,87.78 -134.68,95zm0 348.74c-84.17,0 -149.11,-38.49 -149.11,-97.41 0,-67.34 98.61,-99.81 149.11,-107.03 49.3,7.22 149.11,39.69 149.11,107.03 0,58.93 -67.34,97.41 -149.11,97.41zm573.7 145.5c52.91,0 97.4,-44.49 97.4,-97.4 0,-52.91 -44.49,-97.41 -97.4,-97.41 -52.91,0 -97.4,44.5 -97.4,97.41 0,52.91 44.49,97.4 97.4,97.4zm525.6 0c236.89,0 372.79,-171.96 372.79,-413.67 0,-227.28 -102.21,-414.87 -345.13,-414.87 -182.78,0 -307.85,119.04 -307.85,275.37 0,170.76 129.88,260.95 274.18,260.95 87.78,0 168.36,-49.3 206.83,-103.42 0,6.01 0,12.03 0,18.04 0,115.44 -68.55,226.08 -200.82,226.08 -70.95,0 -116.65,-21.65 -159.94,-62.53l-75.76 131.07c56.52,50.51 138.3,82.98 235.7,82.98zm42.09 -438.93c-74.55,0 -147.91,-36.07 -147.91,-120.26 0,-55.31 50.51,-117.84 141.9,-117.84 113.04,0 156.33,86.58 163.55,163.55 -38.48,46.9 -97.4,74.55 -157.53,74.55zm1012.63 425.7l0 -165.95 103.42 0 0 -150.32 -103.42 0 0 -485.82 -235.7 0 -318.67 501.46 0 134.68 383.61 0 0 165.95 170.76 0zm-170.76 -316.27l-216.46 0 216.46 -334.31 0 334.31zm920.22 134.69l106.64 -106.63 -191.66 -193.11 191.66 -193.1 -106.64 -106.64 -193.1 193.11 -191.66 -193.11 -108.08 106.64 193.11 193.1 -193.11 193.11 108.08 106.63 191.66 -193.1 193.1 193.1z"></path>
  <path class="fil0 svg-elem-10" d="M16164.36 12634.38l0 -1665.6 -309.65 0 -524.41 526.9 202.27 212.25 277.18 -282.17 0 1208.62 354.6 0zm936.64 27.47c491.93,0 774.11,-357.09 774.11,-859.02 0,-471.96 -212.26,-861.52 -716.68,-861.52 -379.57,0 -639.27,247.22 -639.27,571.85 0,354.59 269.69,541.88 569.35,541.88 182.29,0 349.6,-102.39 429.51,-214.76 0,12.49 0,24.98 0,37.46 0,239.73 -142.34,469.47 -417.02,469.47 -147.34,0 -242.23,-44.95 -332.12,-129.85l-157.33 272.18c117.37,104.88 287.18,172.31 489.45,172.31zm87.4 -911.46c-154.83,0 -307.16,-74.91 -307.16,-249.71 0,-114.86 104.88,-244.72 294.67,-244.72 234.74,0 324.63,179.8 339.61,339.62 -79.91,97.39 -202.27,154.82 -327.12,154.82zm1156.38 911.46c109.87,0 202.27,-92.4 202.27,-202.27 0,-109.87 -92.4,-202.26 -202.27,-202.26 -109.87,0 -202.27,92.39 -202.27,202.26 0,109.87 92.4,202.27 202.27,202.27zm944.12 -27.47l619.29 -1418.39 0 -247.22 -1251.07 0 0 312.15 839.04 0 -596.82 1353.46 389.56 0zm1540.95 29.97c349.6,0 669.24,-152.33 669.24,-461.97 0,-202.27 -159.82,-357.09 -359.59,-427.01 184.78,-64.93 332.12,-184.79 332.12,-392.05 0,-312.15 -334.62,-439.5 -641.77,-439.5 -309.65,0 -641.77,127.35 -641.77,439.5 0,207.26 144.83,327.12 329.62,392.05 -199.77,69.92 -357.1,224.74 -357.1,427.01 0,312.15 319.63,461.97 669.24,461.97zm0 -1028.82c-102.39,-14.99 -282.18,-72.42 -282.18,-197.28 0,-119.86 117.36,-189.78 282.18,-189.78 162.31,0 279.68,69.92 279.68,189.78 0,124.86 -177.3,182.29 -279.68,197.28zm0 724.17c-174.8,0 -309.65,-79.91 -309.65,-202.26 0,-139.84 204.77,-207.27 309.65,-222.25 102.38,14.98 309.65,82.41 309.65,222.25 0,122.35 -139.84,202.26 -309.65,202.26zm2035.8 -102.37l221.45 -221.45 -398.01 -400.99 398.01 -401 -221.45 -221.45 -401 401 -398 -401 -224.44 221.45 400.99 401 -400.99 400.99 224.44 221.45 398 -400.99 401 400.99z"></path>
  <path class="fil0 svg-elem-11" d="M7668.39 10806.8c326.74,0 514.16,-237.18 514.16,-570.55 0,-313.47 -140.98,-572.21 -476.01,-572.21 -252.1,0 -424.6,164.2 -424.6,379.81 0,235.52 179.13,359.91 378.16,359.91 121.07,0 232.2,-68 285.28,-142.64 0,8.29 0,16.58 0,24.87 0,159.23 -94.55,311.81 -276.99,311.81 -97.86,0 -160.88,-29.85 -220.59,-86.25l-104.48 180.78c77.95,69.66 190.73,114.45 325.08,114.45zm58.05 -605.38c-102.83,0 -204,-49.76 -204,-165.86 0,-76.29 69.66,-162.54 195.71,-162.54 155.91,0 215.62,119.41 225.57,225.57 -53.07,64.68 -134.35,102.83 -217.28,102.83zm768.06 605.38c72.98,0 134.35,-61.36 134.35,-134.35 0,-72.97 -61.36,-134.35 -134.35,-134.35 -72.97,0 -134.34,61.37 -134.34,134.35 0,72.98 61.36,134.35 134.34,134.35zm724.94 0c326.74,0 514.16,-237.18 514.16,-570.55 0,-313.47 -140.98,-572.21 -476.01,-572.21 -252.1,0 -424.6,164.2 -424.6,379.81 0,235.52 179.13,359.91 378.16,359.91 121.07,0 232.2,-68 285.28,-142.64 0,8.29 0,16.58 0,24.87 0,159.23 -94.55,311.81 -276.99,311.81 -97.86,0 -160.88,-29.85 -220.59,-86.25l-104.48 180.78c77.95,69.66 190.73,114.45 325.08,114.45zm58.05 -605.38c-102.83,0 -204,-49.76 -204,-165.86 0,-76.29 69.66,-162.54 195.71,-162.54 155.91,0 215.62,119.41 225.57,225.57 -53.07,64.68 -134.35,102.83 -217.28,102.83zm1098.11 607.04c267.03,0 442.84,-147.61 442.84,-383.13 0,-223.9 -167.52,-358.25 -354.94,-358.25 -101.17,0 -190.73,39.81 -243.81,92.88l0 -270.35 524.12 0 0 -207.32 -759.63 0 0 635.24 164.2 43.12c66.34,-63.03 140.97,-89.56 232.19,-89.56 126.06,0 199.03,66.35 199.03,164.2 0,89.56 -74.64,164.2 -205.66,164.2 -116.1,0 -218.94,-43.13 -293.58,-121.07l-131.02 164.19c94.54,102.84 233.86,165.86 426.25,165.86zm1350.49 -270.34l147.08 -147.07 -264.35 -266.34 264.35 -266.34 -147.08 -147.08 -266.34 266.34 -264.35 -266.34 -149.06 147.08 266.33 266.34 -266.33 266.34 149.06 147.07 264.35 -266.33 266.34 266.33z"></path>
  <path class="fil0 svg-elem-12" d="M1775.74 12514.78l0 -1343.29 -249.73 0 -422.92 424.94 163.13 171.19 223.55 -227.58 0 974.74 285.98 0zm795.68 24.17c322.23,0 529.66,-163.13 529.66,-394.73 0,-201.39 -177.23,-308.13 -314.18,-322.23 149.04,-26.18 294.04,-136.95 294.04,-306.11 0,-223.54 -193.34,-364.52 -507.51,-364.52 -235.63,0 -404.81,90.62 -513.56,213.47l142.99 179.24c94.66,-90.62 211.47,-138.96 340.35,-138.96 140.97,0 249.73,52.37 249.73,159.1 0,98.68 -98.68,143 -247.72,143 -50.34,0 -142.99,0 -167.15,-2.02l0 257.78c20.14,-2.01 110.76,-4.03 167.15,-4.03 187.3,0 269.87,48.34 269.87,155.07 0,100.7 -90.63,171.18 -253.76,171.18 -130.9,0 -277.92,-56.38 -370.57,-153.05l-149.03 191.32c98.68,120.84 281.95,215.49 529.67,215.49zm962.82 -2.01c88.61,0 163.13,-74.52 163.13,-163.13 0,-88.62 -74.52,-163.13 -163.13,-163.13 -88.62,0 -163.13,74.51 -163.13,163.13 0,88.61 74.51,163.13 163.13,163.13zm966.85 2.01c324.24,0 537.72,-179.24 537.72,-465.22 0,-271.88 -203.41,-435.01 -430.99,-435.01 -122.85,0 -231.6,48.33 -296.05,112.78l0 -328.28 636.4 0 0 -251.74 -922.38 0 0 771.33 199.38 52.37c80.56,-76.53 171.19,-108.76 281.95,-108.76 153.06,0 241.67,80.57 241.67,199.38 0,108.76 -90.62,199.38 -249.72,199.38 -140.97,0 -265.84,-52.36 -356.47,-147.01l-159.1 199.38c114.8,124.86 283.96,201.39 517.58,201.39zm1679.78 -24.17l0 -277.92 173.2 0 0 -251.74 -173.2 0 0 -813.62 -394.73 0 -533.69 839.81 0 225.56 642.44 0 0 277.92 285.98 0zm-285.98 -529.67l-362.51 0 362.51 -559.87 0 559.87zm1541.15 225.57l178.59 -178.59 -320.98 -323.41 320.98 -323.4 -178.59 -178.59 -323.4 323.4 -320.99 -323.4 -181.01 178.59 323.4 323.4 -323.4 323.41 181.01 178.59 320.99 -323.4 323.4 323.4z"></path>
  <path class="fil0 svg-elem-13" d="M1053.08 10061.47l0 -391.56 -72.79 0 -123.28 123.86 47.55 49.9 65.16 -66.34 0 284.13 83.36 0zm140.93 6.46c25.83,0 47.55,-21.72 47.55,-47.55 0,-25.83 -21.73,-47.55 -47.55,-47.55 -25.83,0 -47.55,21.72 -47.55,47.55 0,25.84 21.72,47.55 47.55,47.55zm424.48 -6.46l0 -73.38 -159.67 0c101.56,-73.96 156.74,-132.09 156.74,-199 0,-78.08 -66.34,-125.04 -149.69,-125.04 -54.6,0 -112.71,19.95 -150.88,63.98l47.55 55.18c26.42,-27.59 60.47,-45.2 105.08,-45.2 32.29,0 63.4,17.03 63.4,51.08 0,48.13 -46.97,88.64 -207.23,207.23l0 65.16 294.69 0zm259.52 0l0 -391.56 -72.79 0 -123.28 123.86 47.55 49.9 65.16 -66.34 0 284.13 83.36 0zm339.45 -88.64l52.06 -52.06 -93.57 -94.26 93.57 -94.27 -52.06 -52.06 -94.26 94.27 -93.57 -94.27 -52.77 52.06 94.27 94.27 -94.27 94.26 52.77 52.06 93.57 -94.26 94.26 94.26z"></path>
  <path class="fil0 svg-elem-14" d="M1107.79 8993.77l0 -231.89 144.51 0 0 -210.05 -144.51 0 0 -678.87 -329.35 0 -445.3 700.71 0 188.21 536.04 0 0 231.89 238.61 0zm-238.61 -441.94l-302.47 0 302.47 -467.14 0 467.14zm717.65 460.42c73.94,0 136.11,-62.17 136.11,-136.11 0,-73.94 -62.17,-136.1 -136.11,-136.1 -73.93,0 -136.1,62.17 -136.1,136.1 0,73.94 62.17,136.11 136.1,136.11zm801.68 1.68c235.25,0 450.34,-102.5 450.34,-310.87 0,-136.11 -107.55,-240.3 -241.98,-287.35 124.35,-43.69 223.49,-124.34 223.49,-263.81 0,-210.04 -225.17,-295.74 -431.86,-295.74 -208.37,0 -431.86,85.7 -431.86,295.74 0,139.47 97.46,220.12 221.8,263.81 -134.42,47.05 -240.29,151.24 -240.29,287.35 0,210.04 215.08,310.87 450.34,310.87zm0 -692.31c-68.9,-10.08 -189.89,-48.73 -189.89,-132.75 0,-80.66 78.98,-127.71 189.89,-127.71 109.23,0 188.2,47.05 188.2,127.71 0,84.02 -119.3,122.67 -188.2,132.75zm0 487.3c-117.63,0 -208.37,-53.76 -208.37,-136.1 0,-94.1 137.79,-139.47 208.37,-149.56 68.9,10.08 208.36,55.45 208.36,149.56 0,82.34 -94.09,136.1 -208.36,136.1zm1028.53 203.33c331.03,0 520.92,-240.29 520.92,-578.05 0,-317.59 -142.83,-579.72 -482.27,-579.72 -255.42,0 -430.17,166.35 -430.17,384.8 0,238.61 181.48,364.64 383.12,364.64 122.67,0 235.25,-68.9 289.02,-144.51 0,8.4 0,16.8 0,25.21 0,161.32 -95.77,315.91 -280.62,315.91 -99.14,0 -163,-30.24 -223.49,-87.37l-105.86 183.16c78.98,70.58 193.24,115.95 329.35,115.95zm58.81 -613.34c-104.19,0 -206.69,-50.4 -206.69,-168.03 0,-77.3 70.58,-164.68 198.29,-164.68 157.95,0 218.44,120.99 228.53,228.53 -53.77,65.54 -136.1,104.18 -220.12,104.18zm1381.68 341.13l149.02 -149.02 -267.82 -269.84 267.82 -269.84 -149.02 -149.02 -269.84 269.84 -267.82 -269.84 -151.02 149.02 269.84 269.84 -269.84 269.84 151.02 149.02 267.82 -269.85 269.84 269.85z"></path>
  <path class="fil0 svg-elem-15" d="M12021.99 12843.59l0 -126.44 78.8 0 0 -114.52 -78.8 0 0 -370.14 -179.57 0 -242.8 382.05 0 102.62 292.27 0 0 126.44 130.1 0zm-130.1 -240.96l-164.92 0 164.92 -254.7 0 254.7zm391.29 251.05c40.32,0 74.22,-33.91 74.22,-74.22 0,-40.31 -33.9,-74.21 -74.22,-74.21 -40.31,0 -74.21,33.9 -74.21,74.21 0,40.31 33.9,74.22 74.21,74.22zm346.4 -10.08l227.21 -520.4 0 -90.7 -459.01 0 0 114.52 307.85 0 -218.97 496.58 142.93 0zm565.36 11c128.27,0 245.54,-55.89 245.54,-169.5 0,-74.21 -58.63,-131.02 -131.93,-156.67 67.8,-23.82 121.86,-67.8 121.86,-143.84 0,-114.53 -122.77,-161.26 -235.47,-161.26 -113.61,0 -235.46,46.73 -235.46,161.26 0,76.04 53.14,120.02 120.94,143.84 -73.3,25.65 -131.02,82.46 -131.02,156.67 0,114.52 117.28,169.5 245.54,169.5zm0 -377.48c-37.57,-5.49 -103.53,-26.57 -103.53,-72.38 0,-43.98 43.06,-69.64 103.53,-69.64 59.56,0 102.62,25.66 102.62,69.64 0,45.81 -65.05,66.88 -102.62,72.38zm0 265.7c-64.13,0 -113.61,-29.32 -113.61,-74.21 0,-51.31 75.13,-76.04 113.61,-81.55 37.57,5.5 113.61,30.24 113.61,81.55 0,44.89 -51.31,74.21 -113.61,74.21zm746.93 -37.56l81.25 -81.25 -146.02 -147.12 146.02 -147.13 -81.25 -81.25 -147.12 147.12 -146.03 -147.12 -82.34 81.25 147.12 147.13 -147.12 147.12 82.34 81.25 146.03 -147.12 147.12 147.12z"></path>
  <path class="fil0 svg-elem-16" d="M5384.85 1414.17l0 -113.24 70.58 0 0 -102.57 -70.58 0 0 -331.53 -160.83 0 -217.46 342.19 0 91.91 261.77 0 0 113.24 116.53 0zm-116.53 -215.82l-147.7 0 147.7 -228.13 0 228.13zm709.14 224.84c161.66,0 254.39,-117.35 254.39,-282.28 0,-155.09 -69.75,-283.11 -235.51,-283.11 -124.73,0 -210.08,81.24 -210.08,187.92 0,116.53 88.63,178.07 187.1,178.07 59.91,0 114.88,-33.64 141.15,-70.57 0,4.1 0,8.21 0,12.31 0,78.77 -46.78,154.27 -137.04,154.27 -48.42,0 -79.59,-14.77 -109.14,-42.68l-51.69 89.45c38.56,34.47 94.37,56.62 160.83,56.62zm28.72 -299.52c-50.87,0 -100.94,-24.62 -100.94,-82.06 0,-37.75 34.47,-80.42 96.83,-80.42 77.14,0 106.68,59.09 111.61,111.61 -26.26,32 -66.47,50.87 -107.5,50.87zm-387.39 299.52c36.11,0 66.47,-30.36 66.47,-66.47 0,-36.11 -30.36,-66.47 -66.47,-66.47 -36.11,0 -66.47,30.37 -66.47,66.47 0,36.11 30.37,66.47 66.47,66.47zm962.7 -9.02l0 -547.34 -101.75 0 -172.33 173.15 66.47 69.75 91.08 -92.73 0 397.17 116.53 0zm474.51 -123.91l72.77 -72.77 -130.79 -131.78 130.79 -131.77 -72.77 -72.77 -131.77 131.77 -130.79 -131.77 -73.76 72.77 131.78 131.77 -131.78 131.78 73.76 72.77 130.79 -131.77 131.77 131.77z"></path>
 </g>
</svg>
